# FISURA original CC0-free studio geometry; authored for this game
mtllib fisura_materials.mtl
o floor_armature_tile
v -1.96000 -0.19500 -1.96000
v 1.96000 -0.19500 -1.96000
v 1.96000 -0.19500 1.96000
v -1.96000 -0.19500 1.96000
v -2.00000 -0.15500 -2.00000
v 2.00000 -0.15500 -2.00000
v 2.00000 -0.15500 2.00000
v -2.00000 -0.15500 2.00000
v -2.00000 -0.04500 -2.00000
v 2.00000 -0.04500 -2.00000
v 2.00000 -0.04500 2.00000
v -2.00000 -0.04500 2.00000
v -1.96000 -0.00500 -1.96000
v 1.96000 -0.00500 -1.96000
v 1.96000 -0.00500 1.96000
v -1.96000 -0.00500 1.96000
v -1.80900 -0.01600 -1.80900
v 1.80900 -0.01600 -1.80900
v 1.80900 -0.01600 1.80900
v -1.80900 -0.01600 1.80900
v -1.81500 -0.01000 -1.81500
v 1.81500 -0.01000 -1.81500
v 1.81500 -0.01000 1.81500
v -1.81500 -0.01000 1.81500
v -1.81500 0.00800 -1.81500
v 1.81500 0.00800 -1.81500
v 1.81500 0.00800 1.81500
v -1.81500 0.00800 1.81500
v -1.80900 0.01400 -1.80900
v 1.80900 0.01400 -1.80900
v 1.80900 0.01400 1.80900
v -1.80900 0.01400 1.80900
v -1.91000 -0.00300 -1.91000
v -1.75000 -0.00300 -1.91000
v -1.75000 0.03900 -1.91000
v -1.91000 0.03900 -1.91000
v -1.91000 -0.00300 -1.75000
v -1.75000 -0.00300 -1.75000
v -1.75000 0.03900 -1.75000
v -1.91000 0.03900 -1.75000
v -1.91000 -0.00300 1.75000
v -1.75000 -0.00300 1.75000
v -1.75000 0.03900 1.75000
v -1.91000 0.03900 1.75000
v -1.91000 -0.00300 1.91000
v -1.75000 -0.00300 1.91000
v -1.75000 0.03900 1.91000
v -1.91000 0.03900 1.91000
v 1.75000 -0.00300 -1.91000
v 1.91000 -0.00300 -1.91000
v 1.91000 0.03900 -1.91000
v 1.75000 0.03900 -1.91000
v 1.75000 -0.00300 -1.75000
v 1.91000 -0.00300 -1.75000
v 1.91000 0.03900 -1.75000
v 1.75000 0.03900 -1.75000
v 1.75000 -0.00300 1.75000
v 1.91000 -0.00300 1.75000
v 1.91000 0.03900 1.75000
v 1.75000 0.03900 1.75000
v 1.75000 -0.00300 1.91000
v 1.91000 -0.00300 1.91000
v 1.91000 0.03900 1.91000
v 1.75000 0.03900 1.91000
v -1.93500 0.01300 -1.37500
v -1.88500 0.01300 -1.37500
v -1.88500 0.03300 -1.37500
v -1.93500 0.03300 -1.37500
v -1.93500 0.01300 1.37500
v -1.88500 0.01300 1.37500
v -1.88500 0.03300 1.37500
v -1.93500 0.03300 1.37500
v -1.37500 0.01300 -1.93500
v 1.37500 0.01300 -1.93500
v 1.37500 0.03300 -1.93500
v -1.37500 0.03300 -1.93500
v -1.37500 0.01300 -1.88500
v 1.37500 0.01300 -1.88500
v 1.37500 0.03300 -1.88500
v -1.37500 0.03300 -1.88500
v 1.88500 0.01300 -1.37500
v 1.93500 0.01300 -1.37500
v 1.93500 0.03300 -1.37500
v 1.88500 0.03300 -1.37500
v 1.88500 0.01300 1.37500
v 1.93500 0.01300 1.37500
v 1.93500 0.03300 1.37500
v 1.88500 0.03300 1.37500
v -1.37500 0.01300 1.88500
v 1.37500 0.01300 1.88500
v 1.37500 0.03300 1.88500
v -1.37500 0.03300 1.88500
v -1.37500 0.01300 1.93500
v 1.37500 0.01300 1.93500
v 1.37500 0.03300 1.93500
v -1.37500 0.03300 1.93500
usemtl stone
f 4 3 2 1
f 13 14 15 16
f 1 2 6 5
f 2 3 7 6
f 3 4 8 7
f 4 1 5 8
f 5 6 10 9
f 6 7 11 10
f 7 8 12 11
f 8 5 9 12
f 9 10 14 13
f 10 11 15 14
f 11 12 16 15
f 12 9 13 16
usemtl steel
f 20 19 18 17
f 29 30 31 32
f 17 18 22 21
f 18 19 23 22
f 19 20 24 23
f 20 17 21 24
f 21 22 26 25
f 22 23 27 26
f 23 24 28 27
f 24 21 25 28
f 25 26 30 29
f 26 27 31 30
f 27 28 32 31
f 28 25 29 32
usemtl gold
f 36 35 34 33
f 37 38 39 40
f 33 34 38 37
f 35 36 40 39
f 34 35 39 38
f 36 33 37 40
f 44 43 42 41
f 45 46 47 48
f 41 42 46 45
f 43 44 48 47
f 42 43 47 46
f 44 41 45 48
f 52 51 50 49
f 53 54 55 56
f 49 50 54 53
f 51 52 56 55
f 50 51 55 54
f 52 49 53 56
f 60 59 58 57
f 61 62 63 64
f 57 58 62 61
f 59 60 64 63
f 58 59 63 62
f 60 57 61 64
usemtl carbon
f 68 67 66 65
f 69 70 71 72
f 65 66 70 69
f 67 68 72 71
f 66 67 71 70
f 68 65 69 72
f 76 75 74 73
f 77 78 79 80
f 73 74 78 77
f 75 76 80 79
f 74 75 79 78
f 76 73 77 80
f 84 83 82 81
f 85 86 87 88
f 81 82 86 85
f 83 84 88 87
f 82 83 87 86
f 84 81 85 88
f 92 91 90 89
f 93 94 95 96
f 89 90 94 93
f 91 92 96 95
f 90 91 95 94
f 92 89 93 96
