# FISURA original CC0-free studio geometry; authored for this game
mtllib fisura_materials.mtl
o armored_industrial_crate
v -0.59000 0.01000 -0.59000
v 0.59000 0.01000 -0.59000
v 0.59000 0.01000 0.59000
v -0.59000 0.01000 0.59000
v -0.66000 0.08000 -0.66000
v 0.66000 0.08000 -0.66000
v 0.66000 0.08000 0.66000
v -0.66000 0.08000 0.66000
v -0.66000 1.24000 -0.66000
v 0.66000 1.24000 -0.66000
v 0.66000 1.24000 0.66000
v -0.66000 1.24000 0.66000
v -0.59000 1.31000 -0.59000
v 0.59000 1.31000 -0.59000
v 0.59000 1.31000 0.59000
v -0.59000 1.31000 0.59000
v -0.53000 0.19500 -0.70200
v 0.53000 0.19500 -0.70200
v 0.53000 0.19500 -0.65200
v -0.53000 0.19500 -0.65200
v -0.55000 0.21500 -0.72200
v 0.55000 0.21500 -0.72200
v 0.55000 0.21500 -0.63200
v -0.55000 0.21500 -0.63200
v -0.55000 1.18500 -0.72200
v 0.55000 1.18500 -0.72200
v 0.55000 1.18500 -0.63200
v -0.55000 1.18500 -0.63200
v -0.53000 1.20500 -0.70200
v 0.53000 1.20500 -0.70200
v 0.53000 1.20500 -0.65200
v -0.53000 1.20500 -0.65200
v -0.69500 1.18500 -0.69000
v 0.69500 1.18500 -0.69000
v 0.69500 1.18500 0.69000
v -0.69500 1.18500 0.69000
v -0.72000 1.21000 -0.71500
v 0.72000 1.21000 -0.71500
v 0.72000 1.21000 0.71500
v -0.72000 1.21000 0.71500
v -0.72000 1.31000 -0.71500
v 0.72000 1.31000 -0.71500
v 0.72000 1.31000 0.71500
v -0.72000 1.31000 0.71500
v -0.69500 1.33500 -0.69000
v 0.69500 1.33500 -0.69000
v 0.69500 1.33500 0.69000
v -0.69500 1.33500 0.69000
v -0.71500 0.01000 -0.72000
v 0.71500 0.01000 -0.72000
v 0.71500 0.01000 0.72000
v -0.71500 0.01000 0.72000
v -0.73500 0.03000 -0.74000
v 0.73500 0.03000 -0.74000
v 0.73500 0.03000 0.74000
v -0.73500 0.03000 0.74000
v -0.73500 0.15000 -0.74000
v 0.73500 0.15000 -0.74000
v 0.73500 0.15000 0.74000
v -0.73500 0.15000 0.74000
v -0.71500 0.17000 -0.72000
v 0.71500 0.17000 -0.72000
v 0.71500 0.17000 0.72000
v -0.71500 0.17000 0.72000
v -0.60500 0.08000 -0.60500
v -0.49500 0.08000 -0.60500
v -0.49500 1.28000 -0.60500
v -0.60500 1.28000 -0.60500
v -0.60500 0.08000 -0.49500
v -0.49500 0.08000 -0.49500
v -0.49500 1.28000 -0.49500
v -0.60500 1.28000 -0.49500
v -0.60500 0.08000 0.49500
v -0.49500 0.08000 0.49500
v -0.49500 1.28000 0.49500
v -0.60500 1.28000 0.49500
v -0.60500 0.08000 0.60500
v -0.49500 0.08000 0.60500
v -0.49500 1.28000 0.60500
v -0.60500 1.28000 0.60500
v 0.49500 0.08000 -0.60500
v 0.60500 0.08000 -0.60500
v 0.60500 1.28000 -0.60500
v 0.49500 1.28000 -0.60500
v 0.49500 0.08000 -0.49500
v 0.60500 0.08000 -0.49500
v 0.60500 1.28000 -0.49500
v 0.49500 1.28000 -0.49500
v 0.49500 0.08000 0.49500
v 0.60500 0.08000 0.49500
v 0.60500 1.28000 0.49500
v 0.49500 1.28000 0.49500
v 0.49500 0.08000 0.60500
v 0.60500 0.08000 0.60500
v 0.60500 1.28000 0.60500
v 0.49500 1.28000 0.60500
v -0.64000 0.29500 -0.78500
v 0.64000 0.29500 -0.78500
v 0.64000 0.36500 -0.78500
v -0.64000 0.36500 -0.78500
v -0.64000 0.29500 -0.69500
v 0.64000 0.29500 -0.69500
v 0.64000 0.36500 -0.69500
v -0.64000 0.36500 -0.69500
v -0.64000 1.01500 -0.78500
v 0.64000 1.01500 -0.78500
v 0.64000 1.08500 -0.78500
v -0.64000 1.08500 -0.78500
v -0.64000 1.01500 -0.69500
v 0.64000 1.01500 -0.69500
v 0.64000 1.08500 -0.69500
v -0.64000 1.08500 -0.69500
v -0.40500 0.50000 -0.76900
v -0.33500 0.50000 -0.76900
v -0.33500 0.80000 -0.76900
v -0.40500 0.80000 -0.76900
v -0.40500 0.50000 -0.71900
v -0.33500 0.50000 -0.71900
v -0.33500 0.80000 -0.71900
v -0.40500 0.80000 -0.71900
v -0.03500 0.50000 -0.76900
v 0.03500 0.50000 -0.76900
v 0.03500 0.80000 -0.76900
v -0.03500 0.80000 -0.76900
v -0.03500 0.50000 -0.71900
v 0.03500 0.50000 -0.71900
v 0.03500 0.80000 -0.71900
v -0.03500 0.80000 -0.71900
v 0.33500 0.50000 -0.76900
v 0.40500 0.50000 -0.76900
v 0.40500 0.80000 -0.76900
v 0.33500 0.80000 -0.76900
v 0.33500 0.50000 -0.71900
v 0.40500 0.50000 -0.71900
v 0.40500 0.80000 -0.71900
v 0.33500 0.80000 -0.71900
usemtl carbon
f 4 3 2 1
f 13 14 15 16
f 1 2 6 5
f 2 3 7 6
f 3 4 8 7
f 4 1 5 8
f 5 6 10 9
f 6 7 11 10
f 7 8 12 11
f 8 5 9 12
f 9 10 14 13
f 10 11 15 14
f 11 12 16 15
f 12 9 13 16
usemtl slate
f 20 19 18 17
f 29 30 31 32
f 17 18 22 21
f 18 19 23 22
f 19 20 24 23
f 20 17 21 24
f 21 22 26 25
f 22 23 27 26
f 23 24 28 27
f 24 21 25 28
f 25 26 30 29
f 26 27 31 30
f 27 28 32 31
f 28 25 29 32
usemtl steel
f 36 35 34 33
f 45 46 47 48
f 33 34 38 37
f 34 35 39 38
f 35 36 40 39
f 36 33 37 40
f 37 38 42 41
f 38 39 43 42
f 39 40 44 43
f 40 37 41 44
f 41 42 46 45
f 42 43 47 46
f 43 44 48 47
f 44 41 45 48
f 52 51 50 49
f 61 62 63 64
f 49 50 54 53
f 50 51 55 54
f 51 52 56 55
f 52 49 53 56
f 53 54 58 57
f 54 55 59 58
f 55 56 60 59
f 56 53 57 60
f 57 58 62 61
f 58 59 63 62
f 59 60 64 63
f 60 57 61 64
usemtl titanium
f 68 67 66 65
f 69 70 71 72
f 65 66 70 69
f 67 68 72 71
f 66 67 71 70
f 68 65 69 72
f 76 75 74 73
f 77 78 79 80
f 73 74 78 77
f 75 76 80 79
f 74 75 79 78
f 76 73 77 80
f 84 83 82 81
f 85 86 87 88
f 81 82 86 85
f 83 84 88 87
f 82 83 87 86
f 84 81 85 88
f 92 91 90 89
f 93 94 95 96
f 89 90 94 93
f 91 92 96 95
f 90 91 95 94
f 92 89 93 96
usemtl gold
f 100 99 98 97
f 101 102 103 104
f 97 98 102 101
f 99 100 104 103
f 98 99 103 102
f 100 97 101 104
f 108 107 106 105
f 109 110 111 112
f 105 106 110 109
f 107 108 112 111
f 106 107 111 110
f 108 105 109 112
usemtl steel
f 116 115 114 113
f 117 118 119 120
f 113 114 118 117
f 115 116 120 119
f 114 115 119 118
f 116 113 117 120
f 124 123 122 121
f 125 126 127 128
f 121 122 126 125
f 123 124 128 127
f 122 123 127 126
f 124 121 125 128
f 132 131 130 129
f 133 134 135 136
f 129 130 134 133
f 131 132 136 135
f 130 131 135 134
f 132 129 133 136
