# FISURA original CC0-free studio geometry; authored for this game
mtllib fisura_materials.mtl
o ancient_extraction_gate
v -2.77000 -0.00500 -1.62000
v 2.77000 -0.00500 -1.62000
v 2.77000 -0.00500 1.62000
v -2.77000 -0.00500 1.62000
v -2.85000 0.07500 -1.70000
v 2.85000 0.07500 -1.70000
v 2.85000 0.07500 1.70000
v -2.85000 0.07500 1.70000
v -2.85000 0.26500 -1.70000
v 2.85000 0.26500 -1.70000
v 2.85000 0.26500 1.70000
v -2.85000 0.26500 1.70000
v -2.77000 0.34500 -1.62000
v 2.77000 0.34500 -1.62000
v 2.77000 0.34500 1.62000
v -2.77000 0.34500 1.62000
v -2.37500 0.26000 -1.42500
v 2.37500 0.26000 -1.42500
v 2.37500 0.26000 1.42500
v -2.37500 0.26000 1.42500
v -2.40000 0.28500 -1.45000
v 2.40000 0.28500 -1.45000
v 2.40000 0.28500 1.45000
v -2.40000 0.28500 1.45000
v -2.40000 0.33500 -1.45000
v 2.40000 0.33500 -1.45000
v 2.40000 0.33500 1.45000
v -2.40000 0.33500 1.45000
v -2.37500 0.36000 -1.42500
v 2.37500 0.36000 -1.42500
v 2.37500 0.36000 1.42500
v -2.37500 0.36000 1.42500
v 2.08000 0.33500 0.00000
v 2.00913 0.33500 0.53834
v 1.80133 0.33500 1.04000
v 1.47078 0.33500 1.47078
v 1.04000 0.33500 1.80133
v 0.53834 0.33500 2.00913
v 0.00000 0.33500 2.08000
v -0.53834 0.33500 2.00913
v -1.04000 0.33500 1.80133
v -1.47078 0.33500 1.47078
v -1.80133 0.33500 1.04000
v -2.00913 0.33500 0.53834
v -2.08000 0.33500 0.00000
v -2.00913 0.33500 -0.53834
v -1.80133 0.33500 -1.04000
v -1.47078 0.33500 -1.47078
v -1.04000 0.33500 -1.80133
v -0.53834 0.33500 -2.00913
v -0.00000 0.33500 -2.08000
v 0.53834 0.33500 -2.00913
v 1.04000 0.33500 -1.80133
v 1.47078 0.33500 -1.47078
v 1.80133 0.33500 -1.04000
v 2.00913 0.33500 -0.53834
v 1.71000 0.33500 0.00000
v 1.65173 0.33500 0.44258
v 1.48090 0.33500 0.85500
v 1.20915 0.33500 1.20915
v 0.85500 0.33500 1.48090
v 0.44258 0.33500 1.65173
v 0.00000 0.33500 1.71000
v -0.44258 0.33500 1.65173
v -0.85500 0.33500 1.48090
v -1.20915 0.33500 1.20915
v -1.48090 0.33500 0.85500
v -1.65173 0.33500 0.44258
v -1.71000 0.33500 0.00000
v -1.65173 0.33500 -0.44258
v -1.48090 0.33500 -0.85500
v -1.20915 0.33500 -1.20915
v -0.85500 0.33500 -1.48090
v -0.44258 0.33500 -1.65173
v -0.00000 0.33500 -1.71000
v 0.44258 0.33500 -1.65173
v 0.85500 0.33500 -1.48090
v 1.20915 0.33500 -1.20915
v 1.48090 0.33500 -0.85500
v 1.65173 0.33500 -0.44258
v 2.08000 0.56500 0.00000
v 2.00913 0.56500 0.53834
v 1.80133 0.56500 1.04000
v 1.47078 0.56500 1.47078
v 1.04000 0.56500 1.80133
v 0.53834 0.56500 2.00913
v 0.00000 0.56500 2.08000
v -0.53834 0.56500 2.00913
v -1.04000 0.56500 1.80133
v -1.47078 0.56500 1.47078
v -1.80133 0.56500 1.04000
v -2.00913 0.56500 0.53834
v -2.08000 0.56500 0.00000
v -2.00913 0.56500 -0.53834
v -1.80133 0.56500 -1.04000
v -1.47078 0.56500 -1.47078
v -1.04000 0.56500 -1.80133
v -0.53834 0.56500 -2.00913
v -0.00000 0.56500 -2.08000
v 0.53834 0.56500 -2.00913
v 1.04000 0.56500 -1.80133
v 1.47078 0.56500 -1.47078
v 1.80133 0.56500 -1.04000
v 2.00913 0.56500 -0.53834
v 1.71000 0.56500 0.00000
v 1.65173 0.56500 0.44258
v 1.48090 0.56500 0.85500
v 1.20915 0.56500 1.20915
v 0.85500 0.56500 1.48090
v 0.44258 0.56500 1.65173
v 0.00000 0.56500 1.71000
v -0.44258 0.56500 1.65173
v -0.85500 0.56500 1.48090
v -1.20915 0.56500 1.20915
v -1.48090 0.56500 0.85500
v -1.65173 0.56500 0.44258
v -1.71000 0.56500 0.00000
v -1.65173 0.56500 -0.44258
v -1.48090 0.56500 -0.85500
v -1.20915 0.56500 -1.20915
v -0.85500 0.56500 -1.48090
v -0.44258 0.56500 -1.65173
v -0.00000 0.56500 -1.71000
v 0.44258 0.56500 -1.65173
v 0.85500 0.56500 -1.48090
v 1.20915 0.56500 -1.20915
v 1.48090 0.56500 -0.85500
v 1.65173 0.56500 -0.44258
v 1.63000 0.36000 0.00000
v 1.57446 0.36000 0.42188
v 1.41162 0.36000 0.81500
v 1.15258 0.36000 1.15258
v 0.81500 0.36000 1.41162
v 0.42188 0.36000 1.57446
v 0.00000 0.36000 1.63000
v -0.42188 0.36000 1.57446
v -0.81500 0.36000 1.41162
v -1.15258 0.36000 1.15258
v -1.41162 0.36000 0.81500
v -1.57446 0.36000 0.42188
v -1.63000 0.36000 0.00000
v -1.57446 0.36000 -0.42188
v -1.41162 0.36000 -0.81500
v -1.15258 0.36000 -1.15258
v -0.81500 0.36000 -1.41162
v -0.42188 0.36000 -1.57446
v -0.00000 0.36000 -1.63000
v 0.42188 0.36000 -1.57446
v 0.81500 0.36000 -1.41162
v 1.15258 0.36000 -1.15258
v 1.41162 0.36000 -0.81500
v 1.57446 0.36000 -0.42188
v 1.42000 0.36000 0.00000
v 1.37161 0.36000 0.36752
v 1.22976 0.36000 0.71000
v 1.00409 0.36000 1.00409
v 0.71000 0.36000 1.22976
v 0.36752 0.36000 1.37161
v 0.00000 0.36000 1.42000
v -0.36752 0.36000 1.37161
v -0.71000 0.36000 1.22976
v -1.00409 0.36000 1.00409
v -1.22976 0.36000 0.71000
v -1.37161 0.36000 0.36752
v -1.42000 0.36000 0.00000
v -1.37161 0.36000 -0.36752
v -1.22976 0.36000 -0.71000
v -1.00409 0.36000 -1.00409
v -0.71000 0.36000 -1.22976
v -0.36752 0.36000 -1.37161
v -0.00000 0.36000 -1.42000
v 0.36752 0.36000 -1.37161
v 0.71000 0.36000 -1.22976
v 1.00409 0.36000 -1.00409
v 1.22976 0.36000 -0.71000
v 1.37161 0.36000 -0.36752
v 1.63000 0.60000 0.00000
v 1.57446 0.60000 0.42188
v 1.41162 0.60000 0.81500
v 1.15258 0.60000 1.15258
v 0.81500 0.60000 1.41162
v 0.42188 0.60000 1.57446
v 0.00000 0.60000 1.63000
v -0.42188 0.60000 1.57446
v -0.81500 0.60000 1.41162
v -1.15258 0.60000 1.15258
v -1.41162 0.60000 0.81500
v -1.57446 0.60000 0.42188
v -1.63000 0.60000 0.00000
v -1.57446 0.60000 -0.42188
v -1.41162 0.60000 -0.81500
v -1.15258 0.60000 -1.15258
v -0.81500 0.60000 -1.41162
v -0.42188 0.60000 -1.57446
v -0.00000 0.60000 -1.63000
v 0.42188 0.60000 -1.57446
v 0.81500 0.60000 -1.41162
v 1.15258 0.60000 -1.15258
v 1.41162 0.60000 -0.81500
v 1.57446 0.60000 -0.42188
v 1.42000 0.60000 0.00000
v 1.37161 0.60000 0.36752
v 1.22976 0.60000 0.71000
v 1.00409 0.60000 1.00409
v 0.71000 0.60000 1.22976
v 0.36752 0.60000 1.37161
v 0.00000 0.60000 1.42000
v -0.36752 0.60000 1.37161
v -0.71000 0.60000 1.22976
v -1.00409 0.60000 1.00409
v -1.22976 0.60000 0.71000
v -1.37161 0.60000 0.36752
v -1.42000 0.60000 0.00000
v -1.37161 0.60000 -0.36752
v -1.22976 0.60000 -0.71000
v -1.00409 0.60000 -1.00409
v -0.71000 0.60000 -1.22976
v -0.36752 0.60000 -1.37161
v -0.00000 0.60000 -1.42000
v 0.36752 0.60000 -1.37161
v 0.71000 0.60000 -1.22976
v 1.00409 0.60000 -1.00409
v 1.22976 0.60000 -0.71000
v 1.37161 0.60000 -0.36752
v -2.60500 0.10000 -0.45500
v -2.29500 0.10000 -0.45500
v -2.29500 0.10000 0.05500
v -2.60500 0.10000 0.05500
v -2.72500 0.22000 -0.57500
v -2.17500 0.22000 -0.57500
v -2.17500 0.22000 0.17500
v -2.72500 0.22000 0.17500
v -2.72500 3.18000 -0.57500
v -2.17500 3.18000 -0.57500
v -2.17500 3.18000 0.17500
v -2.72500 3.18000 0.17500
v -2.60500 3.30000 -0.45500
v -2.29500 3.30000 -0.45500
v -2.29500 3.30000 0.05500
v -2.60500 3.30000 0.05500
v -2.75500 3.18500 -0.59500
v -2.14500 3.18500 -0.59500
v -2.14500 3.18500 0.19500
v -2.75500 3.18500 0.19500
v -2.83500 3.26500 -0.67500
v -2.06500 3.26500 -0.67500
v -2.06500 3.26500 0.27500
v -2.83500 3.26500 0.27500
v -2.83500 3.45500 -0.67500
v -2.06500 3.45500 -0.67500
v -2.06500 3.45500 0.27500
v -2.83500 3.45500 0.27500
v -2.75500 3.53500 -0.59500
v -2.14500 3.53500 -0.59500
v -2.14500 3.53500 0.19500
v -2.75500 3.53500 0.19500
v -2.29000 0.90000 -0.69000
v -2.21000 0.90000 -0.69000
v -2.21000 2.90000 -0.69000
v -2.29000 2.90000 -0.69000
v -2.29000 0.90000 -0.61000
v -2.21000 0.90000 -0.61000
v -2.21000 2.90000 -0.61000
v -2.29000 2.90000 -0.61000
v 2.29500 0.10000 -0.45500
v 2.60500 0.10000 -0.45500
v 2.60500 0.10000 0.05500
v 2.29500 0.10000 0.05500
v 2.17500 0.22000 -0.57500
v 2.72500 0.22000 -0.57500
v 2.72500 0.22000 0.17500
v 2.17500 0.22000 0.17500
v 2.17500 3.18000 -0.57500
v 2.72500 3.18000 -0.57500
v 2.72500 3.18000 0.17500
v 2.17500 3.18000 0.17500
v 2.29500 3.30000 -0.45500
v 2.60500 3.30000 -0.45500
v 2.60500 3.30000 0.05500
v 2.29500 3.30000 0.05500
v 2.14500 3.18500 -0.59500
v 2.75500 3.18500 -0.59500
v 2.75500 3.18500 0.19500
v 2.14500 3.18500 0.19500
v 2.06500 3.26500 -0.67500
v 2.83500 3.26500 -0.67500
v 2.83500 3.26500 0.27500
v 2.06500 3.26500 0.27500
v 2.06500 3.45500 -0.67500
v 2.83500 3.45500 -0.67500
v 2.83500 3.45500 0.27500
v 2.06500 3.45500 0.27500
v 2.14500 3.53500 -0.59500
v 2.75500 3.53500 -0.59500
v 2.75500 3.53500 0.19500
v 2.14500 3.53500 0.19500
v 2.21000 0.90000 -0.69000
v 2.29000 0.90000 -0.69000
v 2.29000 2.90000 -0.69000
v 2.21000 2.90000 -0.69000
v 2.21000 0.90000 -0.61000
v 2.29000 0.90000 -0.61000
v 2.29000 2.90000 -0.61000
v 2.21000 2.90000 -0.61000
v -2.70000 3.39500 -0.61000
v 2.70000 3.39500 -0.61000
v 2.70000 3.39500 0.17000
v -2.70000 3.39500 0.17000
v -2.80000 3.49500 -0.71000
v 2.80000 3.49500 -0.71000
v 2.80000 3.49500 0.27000
v -2.80000 3.49500 0.27000
v -2.80000 3.74500 -0.71000
v 2.80000 3.74500 -0.71000
v 2.80000 3.74500 0.27000
v -2.80000 3.74500 0.27000
v -2.70000 3.84500 -0.61000
v 2.70000 3.84500 -0.61000
v 2.70000 3.84500 0.17000
v -2.70000 3.84500 0.17000
v -2.40500 3.81000 -0.57500
v 2.40500 3.81000 -0.57500
v 2.40500 3.81000 0.13500
v -2.40500 3.81000 0.13500
v -2.45000 3.85500 -0.62000
v 2.45000 3.85500 -0.62000
v 2.45000 3.85500 0.18000
v -2.45000 3.85500 0.18000
v -2.45000 3.96500 -0.62000
v 2.45000 3.96500 -0.62000
v 2.45000 3.96500 0.18000
v -2.45000 3.96500 0.18000
v -2.40500 4.01000 -0.57500
v 2.40500 4.01000 -0.57500
v 2.40500 4.01000 0.13500
v -2.40500 4.01000 0.13500
v -1.35000 3.65000 -0.80000
v -1.17000 3.65000 -0.80000
v -1.17000 3.77000 -0.80000
v -1.35000 3.77000 -0.80000
v -1.35000 3.65000 -0.72000
v -1.17000 3.65000 -0.72000
v -1.17000 3.77000 -0.72000
v -1.35000 3.77000 -0.72000
v -0.72000 3.65000 -0.80000
v -0.54000 3.65000 -0.80000
v -0.54000 3.77000 -0.80000
v -0.72000 3.77000 -0.80000
v -0.72000 3.65000 -0.72000
v -0.54000 3.65000 -0.72000
v -0.54000 3.77000 -0.72000
v -0.72000 3.77000 -0.72000
v -0.09000 3.65000 -0.80000
v 0.09000 3.65000 -0.80000
v 0.09000 3.77000 -0.80000
v -0.09000 3.77000 -0.80000
v -0.09000 3.65000 -0.72000
v 0.09000 3.65000 -0.72000
v 0.09000 3.77000 -0.72000
v -0.09000 3.77000 -0.72000
v 0.54000 3.65000 -0.80000
v 0.72000 3.65000 -0.80000
v 0.72000 3.77000 -0.80000
v 0.54000 3.77000 -0.80000
v 0.54000 3.65000 -0.72000
v 0.72000 3.65000 -0.72000
v 0.72000 3.77000 -0.72000
v 0.54000 3.77000 -0.72000
v 1.17000 3.65000 -0.80000
v 1.35000 3.65000 -0.80000
v 1.35000 3.77000 -0.80000
v 1.17000 3.77000 -0.80000
v 1.17000 3.65000 -0.72000
v 1.35000 3.65000 -0.72000
v 1.35000 3.77000 -0.72000
v 1.17000 3.77000 -0.72000
usemtl carbon
f 4 3 2 1
f 13 14 15 16
f 1 2 6 5
f 2 3 7 6
f 3 4 8 7
f 4 1 5 8
f 5 6 10 9
f 6 7 11 10
f 7 8 12 11
f 8 5 9 12
f 9 10 14 13
f 10 11 15 14
f 11 12 16 15
f 12 9 13 16
usemtl steel
f 20 19 18 17
f 29 30 31 32
f 17 18 22 21
f 18 19 23 22
f 19 20 24 23
f 20 17 21 24
f 21 22 26 25
f 22 23 27 26
f 23 24 28 27
f 24 21 25 28
f 25 26 30 29
f 26 27 31 30
f 27 28 32 31
f 28 25 29 32
usemtl gold
f 33 34 82 81
f 58 57 105 106
f 34 58 106 82
f 57 33 81 105
f 34 35 83 82
f 59 58 106 107
f 35 59 107 83
f 58 34 82 106
f 35 36 84 83
f 60 59 107 108
f 36 60 108 84
f 59 35 83 107
f 36 37 85 84
f 61 60 108 109
f 37 61 109 85
f 60 36 84 108
f 37 38 86 85
f 62 61 109 110
f 38 62 110 86
f 61 37 85 109
f 38 39 87 86
f 63 62 110 111
f 39 63 111 87
f 62 38 86 110
f 39 40 88 87
f 64 63 111 112
f 40 64 112 88
f 63 39 87 111
f 40 41 89 88
f 65 64 112 113
f 41 65 113 89
f 64 40 88 112
f 41 42 90 89
f 66 65 113 114
f 42 66 114 90
f 65 41 89 113
f 42 43 91 90
f 67 66 114 115
f 43 67 115 91
f 66 42 90 114
f 43 44 92 91
f 68 67 115 116
f 44 68 116 92
f 67 43 91 115
f 44 45 93 92
f 69 68 116 117
f 45 69 117 93
f 68 44 92 116
f 45 46 94 93
f 70 69 117 118
f 46 70 118 94
f 69 45 93 117
f 46 47 95 94
f 71 70 118 119
f 47 71 119 95
f 70 46 94 118
f 47 48 96 95
f 72 71 119 120
f 48 72 120 96
f 71 47 95 119
f 48 49 97 96
f 73 72 120 121
f 49 73 121 97
f 72 48 96 120
f 49 50 98 97
f 74 73 121 122
f 50 74 122 98
f 73 49 97 121
f 50 51 99 98
f 75 74 122 123
f 51 75 123 99
f 74 50 98 122
f 51 52 100 99
f 76 75 123 124
f 52 76 124 100
f 75 51 99 123
f 52 53 101 100
f 77 76 124 125
f 53 77 125 101
f 76 52 100 124
f 53 54 102 101
f 78 77 125 126
f 54 78 126 102
f 77 53 101 125
f 54 55 103 102
f 79 78 126 127
f 55 79 127 103
f 78 54 102 126
f 55 56 104 103
f 80 79 127 128
f 56 80 128 104
f 79 55 103 127
f 56 33 81 104
f 57 80 128 105
f 33 57 105 81
f 80 56 104 128
usemtl glow
f 129 130 178 177
f 154 153 201 202
f 130 154 202 178
f 153 129 177 201
f 130 131 179 178
f 155 154 202 203
f 131 155 203 179
f 154 130 178 202
f 131 132 180 179
f 156 155 203 204
f 132 156 204 180
f 155 131 179 203
f 132 133 181 180
f 157 156 204 205
f 133 157 205 181
f 156 132 180 204
f 133 134 182 181
f 158 157 205 206
f 134 158 206 182
f 157 133 181 205
f 134 135 183 182
f 159 158 206 207
f 135 159 207 183
f 158 134 182 206
f 135 136 184 183
f 160 159 207 208
f 136 160 208 184
f 159 135 183 207
f 136 137 185 184
f 161 160 208 209
f 137 161 209 185
f 160 136 184 208
f 137 138 186 185
f 162 161 209 210
f 138 162 210 186
f 161 137 185 209
f 138 139 187 186
f 163 162 210 211
f 139 163 211 187
f 162 138 186 210
f 139 140 188 187
f 164 163 211 212
f 140 164 212 188
f 163 139 187 211
f 140 141 189 188
f 165 164 212 213
f 141 165 213 189
f 164 140 188 212
f 141 142 190 189
f 166 165 213 214
f 142 166 214 190
f 165 141 189 213
f 142 143 191 190
f 167 166 214 215
f 143 167 215 191
f 166 142 190 214
f 143 144 192 191
f 168 167 215 216
f 144 168 216 192
f 167 143 191 215
f 144 145 193 192
f 169 168 216 217
f 145 169 217 193
f 168 144 192 216
f 145 146 194 193
f 170 169 217 218
f 146 170 218 194
f 169 145 193 217
f 146 147 195 194
f 171 170 218 219
f 147 171 219 195
f 170 146 194 218
f 147 148 196 195
f 172 171 219 220
f 148 172 220 196
f 171 147 195 219
f 148 149 197 196
f 173 172 220 221
f 149 173 221 197
f 172 148 196 220
f 149 150 198 197
f 174 173 221 222
f 150 174 222 198
f 173 149 197 221
f 150 151 199 198
f 175 174 222 223
f 151 175 223 199
f 174 150 198 222
f 151 152 200 199
f 176 175 223 224
f 152 176 224 200
f 175 151 199 223
f 152 129 177 200
f 153 176 224 201
f 129 153 201 177
f 176 152 200 224
usemtl steel
f 228 227 226 225
f 237 238 239 240
f 225 226 230 229
f 226 227 231 230
f 227 228 232 231
f 228 225 229 232
f 229 230 234 233
f 230 231 235 234
f 231 232 236 235
f 232 229 233 236
f 233 234 238 237
f 234 235 239 238
f 235 236 240 239
f 236 233 237 240
usemtl titanium
f 244 243 242 241
f 253 254 255 256
f 241 242 246 245
f 242 243 247 246
f 243 244 248 247
f 244 241 245 248
f 245 246 250 249
f 246 247 251 250
f 247 248 252 251
f 248 245 249 252
f 249 250 254 253
f 250 251 255 254
f 251 252 256 255
f 252 249 253 256
usemtl glow
f 260 259 258 257
f 261 262 263 264
f 257 258 262 261
f 259 260 264 263
f 258 259 263 262
f 260 257 261 264
usemtl steel
f 268 267 266 265
f 277 278 279 280
f 265 266 270 269
f 266 267 271 270
f 267 268 272 271
f 268 265 269 272
f 269 270 274 273
f 270 271 275 274
f 271 272 276 275
f 272 269 273 276
f 273 274 278 277
f 274 275 279 278
f 275 276 280 279
f 276 273 277 280
usemtl titanium
f 284 283 282 281
f 293 294 295 296
f 281 282 286 285
f 282 283 287 286
f 283 284 288 287
f 284 281 285 288
f 285 286 290 289
f 286 287 291 290
f 287 288 292 291
f 288 285 289 292
f 289 290 294 293
f 290 291 295 294
f 291 292 296 295
f 292 289 293 296
usemtl glow
f 300 299 298 297
f 301 302 303 304
f 297 298 302 301
f 299 300 304 303
f 298 299 303 302
f 300 297 301 304
usemtl carbon
f 308 307 306 305
f 317 318 319 320
f 305 306 310 309
f 306 307 311 310
f 307 308 312 311
f 308 305 309 312
f 309 310 314 313
f 310 311 315 314
f 311 312 316 315
f 312 309 313 316
f 313 314 318 317
f 314 315 319 318
f 315 316 320 319
f 316 313 317 320
usemtl gold
f 324 323 322 321
f 333 334 335 336
f 321 322 326 325
f 322 323 327 326
f 323 324 328 327
f 324 321 325 328
f 325 326 330 329
f 326 327 331 330
f 327 328 332 331
f 328 325 329 332
f 329 330 334 333
f 330 331 335 334
f 331 332 336 335
f 332 329 333 336
usemtl glow
f 340 339 338 337
f 341 342 343 344
f 337 338 342 341
f 339 340 344 343
f 338 339 343 342
f 340 337 341 344
f 348 347 346 345
f 349 350 351 352
f 345 346 350 349
f 347 348 352 351
f 346 347 351 350
f 348 345 349 352
f 356 355 354 353
f 357 358 359 360
f 353 354 358 357
f 355 356 360 359
f 354 355 359 358
f 356 353 357 360
f 364 363 362 361
f 365 366 367 368
f 361 362 366 365
f 363 364 368 367
f 362 363 367 366
f 364 361 365 368
f 372 371 370 369
f 373 374 375 376
f 369 370 374 373
f 371 372 376 375
f 370 371 375 374
f 372 369 373 376
