# FISURA original CC0-free studio geometry; authored for this game
mtllib fisura_materials.mtl
o pulse_reactor_sculpture
v -1.05000 0.00000 -1.05000
v 1.05000 0.00000 -1.05000
v 1.05000 0.00000 1.05000
v -1.05000 0.00000 1.05000
v -1.12500 0.07500 -1.12500
v 1.12500 0.07500 -1.12500
v 1.12500 0.07500 1.12500
v -1.12500 0.07500 1.12500
v -1.12500 0.30500 -1.12500
v 1.12500 0.30500 -1.12500
v 1.12500 0.30500 1.12500
v -1.12500 0.30500 1.12500
v -1.05000 0.38000 -1.05000
v 1.05000 0.38000 -1.05000
v 1.05000 0.38000 1.05000
v -1.05000 0.38000 1.05000
v -0.77000 0.37000 -0.77000
v 0.77000 0.37000 -0.77000
v 0.77000 0.37000 0.77000
v -0.77000 0.37000 0.77000
v -0.82500 0.42500 -0.82500
v 0.82500 0.42500 -0.82500
v 0.82500 0.42500 0.82500
v -0.82500 0.42500 0.82500
v -0.82500 0.79500 -0.82500
v 0.82500 0.79500 -0.82500
v 0.82500 0.79500 0.82500
v -0.82500 0.79500 0.82500
v -0.77000 0.85000 -0.77000
v 0.77000 0.85000 -0.77000
v 0.77000 0.85000 0.77000
v -0.77000 0.85000 0.77000
v 0.45000 0.75000 0.00000
v 0.38971 0.75000 0.22500
v 0.22500 0.75000 0.38971
v 0.00000 0.75000 0.45000
v -0.22500 0.75000 0.38971
v -0.38971 0.75000 0.22500
v -0.45000 0.75000 0.00000
v -0.38971 0.75000 -0.22500
v -0.22500 0.75000 -0.38971
v -0.00000 0.75000 -0.45000
v 0.22500 0.75000 -0.38971
v 0.38971 0.75000 -0.22500
v 0.45000 1.41000 0.00000
v 0.38971 1.41000 0.22500
v 0.22500 1.41000 0.38971
v 0.00000 1.41000 0.45000
v -0.22500 1.41000 0.38971
v -0.38971 1.41000 0.22500
v -0.45000 1.41000 0.00000
v -0.38971 1.41000 -0.22500
v -0.22500 1.41000 -0.38971
v -0.00000 1.41000 -0.45000
v 0.22500 1.41000 -0.38971
v 0.38971 1.41000 -0.22500
v 0.82000 1.17000 0.00000
v 0.75758 1.17000 0.31380
v 0.57983 1.17000 0.57983
v 0.31380 1.17000 0.75758
v 0.00000 1.17000 0.82000
v -0.31380 1.17000 0.75758
v -0.57983 1.17000 0.57983
v -0.75758 1.17000 0.31380
v -0.82000 1.17000 0.00000
v -0.75758 1.17000 -0.31380
v -0.57983 1.17000 -0.57983
v -0.31380 1.17000 -0.75758
v -0.00000 1.17000 -0.82000
v 0.31380 1.17000 -0.75758
v 0.57983 1.17000 -0.57983
v 0.75758 1.17000 -0.31380
v 0.59000 1.17000 0.00000
v 0.54509 1.17000 0.22578
v 0.41719 1.17000 0.41719
v 0.22578 1.17000 0.54509
v 0.00000 1.17000 0.59000
v -0.22578 1.17000 0.54509
v -0.41719 1.17000 0.41719
v -0.54509 1.17000 0.22578
v -0.59000 1.17000 0.00000
v -0.54509 1.17000 -0.22578
v -0.41719 1.17000 -0.41719
v -0.22578 1.17000 -0.54509
v -0.00000 1.17000 -0.59000
v 0.22578 1.17000 -0.54509
v 0.41719 1.17000 -0.41719
v 0.54509 1.17000 -0.22578
v 0.82000 1.37000 0.00000
v 0.75758 1.37000 0.31380
v 0.57983 1.37000 0.57983
v 0.31380 1.37000 0.75758
v 0.00000 1.37000 0.82000
v -0.31380 1.37000 0.75758
v -0.57983 1.37000 0.57983
v -0.75758 1.37000 0.31380
v -0.82000 1.37000 0.00000
v -0.75758 1.37000 -0.31380
v -0.57983 1.37000 -0.57983
v -0.31380 1.37000 -0.75758
v -0.00000 1.37000 -0.82000
v 0.31380 1.37000 -0.75758
v 0.57983 1.37000 -0.57983
v 0.75758 1.37000 -0.31380
v 0.59000 1.37000 0.00000
v 0.54509 1.37000 0.22578
v 0.41719 1.37000 0.41719
v 0.22578 1.37000 0.54509
v 0.00000 1.37000 0.59000
v -0.22578 1.37000 0.54509
v -0.41719 1.37000 0.41719
v -0.54509 1.37000 0.22578
v -0.59000 1.37000 0.00000
v -0.54509 1.37000 -0.22578
v -0.41719 1.37000 -0.41719
v -0.22578 1.37000 -0.54509
v -0.00000 1.37000 -0.59000
v 0.22578 1.37000 -0.54509
v 0.41719 1.37000 -0.41719
v 0.54509 1.37000 -0.22578
v 0.73000 1.52500 0.00000
v 0.67443 1.52500 0.27936
v 0.51619 1.52500 0.51619
v 0.27936 1.52500 0.67443
v 0.00000 1.52500 0.73000
v -0.27936 1.52500 0.67443
v -0.51619 1.52500 0.51619
v -0.67443 1.52500 0.27936
v -0.73000 1.52500 0.00000
v -0.67443 1.52500 -0.27936
v -0.51619 1.52500 -0.51619
v -0.27936 1.52500 -0.67443
v -0.00000 1.52500 -0.73000
v 0.27936 1.52500 -0.67443
v 0.51619 1.52500 -0.51619
v 0.67443 1.52500 -0.27936
v 0.53000 1.52500 0.00000
v 0.48966 1.52500 0.20282
v 0.37477 1.52500 0.37477
v 0.20282 1.52500 0.48966
v 0.00000 1.52500 0.53000
v -0.20282 1.52500 0.48966
v -0.37477 1.52500 0.37477
v -0.48966 1.52500 0.20282
v -0.53000 1.52500 0.00000
v -0.48966 1.52500 -0.20282
v -0.37477 1.52500 -0.37477
v -0.20282 1.52500 -0.48966
v -0.00000 1.52500 -0.53000
v 0.20282 1.52500 -0.48966
v 0.37477 1.52500 -0.37477
v 0.48966 1.52500 -0.20282
v 0.73000 1.67500 0.00000
v 0.67443 1.67500 0.27936
v 0.51619 1.67500 0.51619
v 0.27936 1.67500 0.67443
v 0.00000 1.67500 0.73000
v -0.27936 1.67500 0.67443
v -0.51619 1.67500 0.51619
v -0.67443 1.67500 0.27936
v -0.73000 1.67500 0.00000
v -0.67443 1.67500 -0.27936
v -0.51619 1.67500 -0.51619
v -0.27936 1.67500 -0.67443
v -0.00000 1.67500 -0.73000
v 0.27936 1.67500 -0.67443
v 0.51619 1.67500 -0.51619
v 0.67443 1.67500 -0.27936
v 0.53000 1.67500 0.00000
v 0.48966 1.67500 0.20282
v 0.37477 1.67500 0.37477
v 0.20282 1.67500 0.48966
v 0.00000 1.67500 0.53000
v -0.20282 1.67500 0.48966
v -0.37477 1.67500 0.37477
v -0.48966 1.67500 0.20282
v -0.53000 1.67500 0.00000
v -0.48966 1.67500 -0.20282
v -0.37477 1.67500 -0.37477
v -0.20282 1.67500 -0.48966
v -0.00000 1.67500 -0.53000
v 0.20282 1.67500 -0.48966
v 0.37477 1.67500 -0.37477
v 0.48966 1.67500 -0.20282
v -0.16500 1.50000 -0.16500
v 0.16500 1.50000 -0.16500
v 0.16500 1.50000 0.16500
v -0.16500 1.50000 0.16500
v -0.27500 1.61000 -0.27500
v 0.27500 1.61000 -0.27500
v 0.27500 1.61000 0.27500
v -0.27500 1.61000 0.27500
v -0.27500 2.01000 -0.27500
v 0.27500 2.01000 -0.27500
v 0.27500 2.01000 0.27500
v -0.27500 2.01000 0.27500
v -0.16500 2.12000 -0.16500
v 0.16500 2.12000 -0.16500
v 0.16500 2.12000 0.16500
v -0.16500 2.12000 0.16500
v 0.82000 0.20000 -0.12000
v 1.06000 0.20000 -0.12000
v 1.06000 1.30000 -0.12000
v 0.82000 1.30000 -0.12000
v 0.82000 0.20000 0.12000
v 1.06000 0.20000 0.12000
v 1.06000 1.30000 0.12000
v 0.82000 1.30000 0.12000
v 0.87500 1.14000 -0.06500
v 1.00500 1.14000 -0.06500
v 1.00500 1.28000 -0.06500
v 0.87500 1.28000 -0.06500
v 0.87500 1.14000 0.06500
v 1.00500 1.14000 0.06500
v 1.00500 1.28000 0.06500
v 0.87500 1.28000 0.06500
v 0.30608 0.20000 0.85799
v 0.42608 0.20000 0.65014
v 0.42608 1.30000 0.65014
v 0.30608 1.30000 0.85799
v 0.51392 0.20000 0.97799
v 0.63392 0.20000 0.77014
v 0.63392 1.30000 0.77014
v 0.51392 1.30000 0.97799
v 0.40500 1.14000 0.74906
v 0.53500 1.14000 0.74906
v 0.53500 1.28000 0.74906
v 0.40500 1.28000 0.74906
v 0.40500 1.14000 0.87906
v 0.53500 1.14000 0.87906
v 0.53500 1.28000 0.87906
v 0.40500 1.28000 0.87906
v -0.51392 0.20000 0.97799
v -0.63392 0.20000 0.77014
v -0.63392 1.30000 0.77014
v -0.51392 1.30000 0.97799
v -0.30608 0.20000 0.85799
v -0.42608 0.20000 0.65014
v -0.42608 1.30000 0.65014
v -0.30608 1.30000 0.85799
v -0.53500 1.14000 0.74906
v -0.40500 1.14000 0.74906
v -0.40500 1.28000 0.74906
v -0.53500 1.28000 0.74906
v -0.53500 1.14000 0.87906
v -0.40500 1.14000 0.87906
v -0.40500 1.28000 0.87906
v -0.53500 1.28000 0.87906
v -0.82000 0.20000 0.12000
v -1.06000 0.20000 0.12000
v -1.06000 1.30000 0.12000
v -0.82000 1.30000 0.12000
v -0.82000 0.20000 -0.12000
v -1.06000 0.20000 -0.12000
v -1.06000 1.30000 -0.12000
v -0.82000 1.30000 -0.12000
v -1.00500 1.14000 -0.06500
v -0.87500 1.14000 -0.06500
v -0.87500 1.28000 -0.06500
v -1.00500 1.28000 -0.06500
v -1.00500 1.14000 0.06500
v -0.87500 1.14000 0.06500
v -0.87500 1.28000 0.06500
v -1.00500 1.28000 0.06500
v -0.30608 0.20000 -0.85799
v -0.42608 0.20000 -0.65014
v -0.42608 1.30000 -0.65014
v -0.30608 1.30000 -0.85799
v -0.51392 0.20000 -0.97799
v -0.63392 0.20000 -0.77014
v -0.63392 1.30000 -0.77014
v -0.51392 1.30000 -0.97799
v -0.53500 1.14000 -0.87906
v -0.40500 1.14000 -0.87906
v -0.40500 1.28000 -0.87906
v -0.53500 1.28000 -0.87906
v -0.53500 1.14000 -0.74906
v -0.40500 1.14000 -0.74906
v -0.40500 1.28000 -0.74906
v -0.53500 1.28000 -0.74906
v 0.51392 0.20000 -0.97799
v 0.63392 0.20000 -0.77014
v 0.63392 1.30000 -0.77014
v 0.51392 1.30000 -0.97799
v 0.30608 0.20000 -0.85799
v 0.42608 0.20000 -0.65014
v 0.42608 1.30000 -0.65014
v 0.30608 1.30000 -0.85799
v 0.40500 1.14000 -0.87906
v 0.53500 1.14000 -0.87906
v 0.53500 1.28000 -0.87906
v 0.40500 1.28000 -0.87906
v 0.40500 1.14000 -0.74906
v 0.53500 1.14000 -0.74906
v 0.53500 1.28000 -0.74906
v 0.40500 1.28000 -0.74906
usemtl stone
f 4 3 2 1
f 13 14 15 16
f 1 2 6 5
f 2 3 7 6
f 3 4 8 7
f 4 1 5 8
f 5 6 10 9
f 6 7 11 10
f 7 8 12 11
f 8 5 9 12
f 9 10 14 13
f 10 11 15 14
f 11 12 16 15
f 12 9 13 16
usemtl carbon
f 20 19 18 17
f 29 30 31 32
f 17 18 22 21
f 18 19 23 22
f 19 20 24 23
f 20 17 21 24
f 21 22 26 25
f 22 23 27 26
f 23 24 28 27
f 24 21 25 28
f 25 26 30 29
f 26 27 31 30
f 27 28 32 31
f 28 25 29 32
usemtl copper
f 44 43 42 41 40 39 38 37 36 35 34 33
f 45 46 47 48 49 50 51 52 53 54 55 56
f 33 34 46 45
f 34 35 47 46
f 35 36 48 47
f 36 37 49 48
f 37 38 50 49
f 38 39 51 50
f 39 40 52 51
f 40 41 53 52
f 41 42 54 53
f 42 43 55 54
f 43 44 56 55
f 44 33 45 56
usemtl gold
f 57 58 90 89
f 74 73 105 106
f 58 74 106 90
f 73 57 89 105
f 58 59 91 90
f 75 74 106 107
f 59 75 107 91
f 74 58 90 106
f 59 60 92 91
f 76 75 107 108
f 60 76 108 92
f 75 59 91 107
f 60 61 93 92
f 77 76 108 109
f 61 77 109 93
f 76 60 92 108
f 61 62 94 93
f 78 77 109 110
f 62 78 110 94
f 77 61 93 109
f 62 63 95 94
f 79 78 110 111
f 63 79 111 95
f 78 62 94 110
f 63 64 96 95
f 80 79 111 112
f 64 80 112 96
f 79 63 95 111
f 64 65 97 96
f 81 80 112 113
f 65 81 113 97
f 80 64 96 112
f 65 66 98 97
f 82 81 113 114
f 66 82 114 98
f 81 65 97 113
f 66 67 99 98
f 83 82 114 115
f 67 83 115 99
f 82 66 98 114
f 67 68 100 99
f 84 83 115 116
f 68 84 116 100
f 83 67 99 115
f 68 69 101 100
f 85 84 116 117
f 69 85 117 101
f 84 68 100 116
f 69 70 102 101
f 86 85 117 118
f 70 86 118 102
f 85 69 101 117
f 70 71 103 102
f 87 86 118 119
f 71 87 119 103
f 86 70 102 118
f 71 72 104 103
f 88 87 119 120
f 72 88 120 104
f 87 71 103 119
f 72 57 89 104
f 73 88 120 105
f 57 73 105 89
f 88 72 104 120
usemtl glow
f 121 122 154 153
f 138 137 169 170
f 122 138 170 154
f 137 121 153 169
f 122 123 155 154
f 139 138 170 171
f 123 139 171 155
f 138 122 154 170
f 123 124 156 155
f 140 139 171 172
f 124 140 172 156
f 139 123 155 171
f 124 125 157 156
f 141 140 172 173
f 125 141 173 157
f 140 124 156 172
f 125 126 158 157
f 142 141 173 174
f 126 142 174 158
f 141 125 157 173
f 126 127 159 158
f 143 142 174 175
f 127 143 175 159
f 142 126 158 174
f 127 128 160 159
f 144 143 175 176
f 128 144 176 160
f 143 127 159 175
f 128 129 161 160
f 145 144 176 177
f 129 145 177 161
f 144 128 160 176
f 129 130 162 161
f 146 145 177 178
f 130 146 178 162
f 145 129 161 177
f 130 131 163 162
f 147 146 178 179
f 131 147 179 163
f 146 130 162 178
f 131 132 164 163
f 148 147 179 180
f 132 148 180 164
f 147 131 163 179
f 132 133 165 164
f 149 148 180 181
f 133 149 181 165
f 148 132 164 180
f 133 134 166 165
f 150 149 181 182
f 134 150 182 166
f 149 133 165 181
f 134 135 167 166
f 151 150 182 183
f 135 151 183 167
f 150 134 166 182
f 135 136 168 167
f 152 151 183 184
f 136 152 184 168
f 151 135 167 183
f 136 121 153 168
f 137 152 184 169
f 121 137 169 153
f 152 136 168 184
usemtl titanium
f 188 187 186 185
f 197 198 199 200
f 185 186 190 189
f 186 187 191 190
f 187 188 192 191
f 188 185 189 192
f 189 190 194 193
f 190 191 195 194
f 191 192 196 195
f 192 189 193 196
f 193 194 198 197
f 194 195 199 198
f 195 196 200 199
f 196 193 197 200
usemtl slate
f 204 203 202 201
f 205 206 207 208
f 201 202 206 205
f 203 204 208 207
f 202 203 207 206
f 204 201 205 208
usemtl glow
f 212 211 210 209
f 213 214 215 216
f 209 210 214 213
f 211 212 216 215
f 210 211 215 214
f 212 209 213 216
usemtl slate
f 220 219 218 217
f 221 222 223 224
f 217 218 222 221
f 219 220 224 223
f 218 219 223 222
f 220 217 221 224
usemtl glow
f 228 227 226 225
f 229 230 231 232
f 225 226 230 229
f 227 228 232 231
f 226 227 231 230
f 228 225 229 232
usemtl slate
f 236 235 234 233
f 237 238 239 240
f 233 234 238 237
f 235 236 240 239
f 234 235 239 238
f 236 233 237 240
usemtl glow
f 244 243 242 241
f 245 246 247 248
f 241 242 246 245
f 243 244 248 247
f 242 243 247 246
f 244 241 245 248
usemtl slate
f 252 251 250 249
f 253 254 255 256
f 249 250 254 253
f 251 252 256 255
f 250 251 255 254
f 252 249 253 256
usemtl glow
f 260 259 258 257
f 261 262 263 264
f 257 258 262 261
f 259 260 264 263
f 258 259 263 262
f 260 257 261 264
usemtl slate
f 268 267 266 265
f 269 270 271 272
f 265 266 270 269
f 267 268 272 271
f 266 267 271 270
f 268 265 269 272
usemtl glow
f 276 275 274 273
f 277 278 279 280
f 273 274 278 277
f 275 276 280 279
f 274 275 279 278
f 276 273 277 280
usemtl slate
f 284 283 282 281
f 285 286 287 288
f 281 282 286 285
f 283 284 288 287
f 282 283 287 286
f 284 281 285 288
usemtl glow
f 292 291 290 289
f 293 294 295 296
f 289 290 294 293
f 291 292 296 295
f 290 291 295 294
f 292 289 293 296
