# FISURA original CC0-free studio geometry; authored for this game
mtllib fisura_materials.mtl
o sentry_reaver_drone
v -0.44000 -0.13000 -0.31500
v 0.44000 -0.13000 -0.31500
v 0.44000 -0.13000 0.31500
v -0.44000 -0.13000 0.31500
v -0.60000 0.03000 -0.47500
v 0.60000 0.03000 -0.47500
v 0.60000 0.03000 0.47500
v -0.60000 0.03000 0.47500
v -0.60000 0.27000 -0.47500
v 0.60000 0.27000 -0.47500
v 0.60000 0.27000 0.47500
v -0.60000 0.27000 0.47500
v -0.44000 0.43000 -0.31500
v 0.44000 0.43000 -0.31500
v 0.44000 0.43000 0.31500
v -0.44000 0.43000 0.31500
v -0.40500 0.10500 -0.49000
v 0.40500 0.10500 -0.49000
v 0.40500 0.10500 -0.31000
v -0.40500 0.10500 -0.31000
v -0.47500 0.17500 -0.56000
v 0.47500 0.17500 -0.56000
v 0.47500 0.17500 -0.24000
v -0.47500 0.17500 -0.24000
v -0.47500 0.32500 -0.56000
v 0.47500 0.32500 -0.56000
v 0.47500 0.32500 -0.24000
v -0.47500 0.32500 -0.24000
v -0.40500 0.39500 -0.49000
v 0.40500 0.39500 -0.49000
v 0.40500 0.39500 -0.31000
v -0.40500 0.39500 -0.31000
v -0.26000 0.19000 -0.61000
v 0.26000 0.19000 -0.61000
v 0.26000 0.19000 -0.55000
v -0.26000 0.19000 -0.55000
v -0.27500 0.20500 -0.62500
v 0.27500 0.20500 -0.62500
v 0.27500 0.20500 -0.53500
v -0.27500 0.20500 -0.53500
v -0.27500 0.31500 -0.62500
v 0.27500 0.31500 -0.62500
v 0.27500 0.31500 -0.53500
v -0.27500 0.31500 -0.53500
v -0.26000 0.33000 -0.61000
v 0.26000 0.33000 -0.61000
v 0.26000 0.33000 -0.55000
v -0.26000 0.33000 -0.55000
v -0.34500 0.52500 -0.30000
v 0.34500 0.52500 -0.30000
v 0.34500 0.52500 0.30000
v -0.34500 0.52500 0.30000
v -0.37500 0.55500 -0.33000
v 0.37500 0.55500 -0.33000
v 0.37500 0.55500 0.33000
v -0.37500 0.55500 0.33000
v -0.37500 0.60500 -0.33000
v 0.37500 0.60500 -0.33000
v 0.37500 0.60500 0.33000
v -0.37500 0.60500 0.33000
v -0.34500 0.63500 -0.30000
v 0.34500 0.63500 -0.30000
v 0.34500 0.63500 0.30000
v -0.34500 0.63500 0.30000
v -0.21000 0.61000 -0.18500
v 0.21000 0.61000 -0.18500
v 0.21000 0.67000 -0.18500
v -0.21000 0.67000 -0.18500
v -0.21000 0.61000 0.16500
v 0.21000 0.61000 0.16500
v 0.21000 0.67000 0.16500
v -0.21000 0.67000 0.16500
v 0.27000 -0.29000 0.00000
v 0.23383 -0.29000 0.13500
v 0.13500 -0.29000 0.23383
v 0.00000 -0.29000 0.27000
v -0.13500 -0.29000 0.23383
v -0.23383 -0.29000 0.13500
v -0.27000 -0.29000 0.00000
v -0.23383 -0.29000 -0.13500
v -0.13500 -0.29000 -0.23383
v -0.00000 -0.29000 -0.27000
v 0.13500 -0.29000 -0.23383
v 0.23383 -0.29000 -0.13500
v 0.27000 -0.07000 0.00000
v 0.23383 -0.07000 0.13500
v 0.13500 -0.07000 0.23383
v 0.00000 -0.07000 0.27000
v -0.13500 -0.07000 0.23383
v -0.23383 -0.07000 0.13500
v -0.27000 -0.07000 0.00000
v -0.23383 -0.07000 -0.13500
v -0.13500 -0.07000 -0.23383
v -0.00000 -0.07000 -0.27000
v 0.13500 -0.07000 -0.23383
v 0.23383 -0.07000 -0.13500
v -0.97500 0.00000 -0.17000
v -0.54500 0.00000 -0.17000
v -0.54500 0.00000 0.17000
v -0.97500 0.00000 0.17000
v -1.01500 0.04000 -0.21000
v -0.50500 0.04000 -0.21000
v -0.50500 0.04000 0.21000
v -1.01500 0.04000 0.21000
v -1.01500 0.16000 -0.21000
v -0.50500 0.16000 -0.21000
v -0.50500 0.16000 0.21000
v -1.01500 0.16000 0.21000
v -0.97500 0.20000 -0.17000
v -0.54500 0.20000 -0.17000
v -0.54500 0.20000 0.17000
v -0.97500 0.20000 0.17000
v -0.78000 0.32000 0.00000
v -0.78000 0.29588 0.09000
v -0.78000 0.23000 0.15588
v -0.78000 0.14000 0.18000
v -0.78000 0.05000 0.15588
v -0.78000 -0.01588 0.09000
v -0.78000 -0.04000 0.00000
v -0.78000 -0.01588 -0.09000
v -0.78000 0.05000 -0.15588
v -0.78000 0.14000 -0.18000
v -0.78000 0.23000 -0.15588
v -0.78000 0.29588 -0.09000
v -1.18000 0.32000 0.00000
v -1.18000 0.29588 0.09000
v -1.18000 0.23000 0.15588
v -1.18000 0.14000 0.18000
v -1.18000 0.05000 0.15588
v -1.18000 -0.01588 0.09000
v -1.18000 -0.04000 0.00000
v -1.18000 -0.01588 -0.09000
v -1.18000 0.05000 -0.15588
v -1.18000 0.14000 -0.18000
v -1.18000 0.23000 -0.15588
v -1.18000 0.29588 -0.09000
v -0.82000 0.27000 0.00000
v -0.82000 0.25258 0.06500
v -0.82000 0.20500 0.11258
v -0.82000 0.14000 0.13000
v -0.82000 0.07500 0.11258
v -0.82000 0.02742 0.06500
v -0.82000 0.01000 0.00000
v -0.82000 0.02742 -0.06500
v -0.82000 0.07500 -0.11258
v -0.82000 0.14000 -0.13000
v -0.82000 0.20500 -0.11258
v -0.82000 0.25258 -0.06500
v -1.26000 0.27000 0.00000
v -1.26000 0.25258 0.06500
v -1.26000 0.20500 0.11258
v -1.26000 0.14000 0.13000
v -1.26000 0.07500 0.11258
v -1.26000 0.02742 0.06500
v -1.26000 0.01000 0.00000
v -1.26000 0.02742 -0.06500
v -1.26000 0.07500 -0.11258
v -1.26000 0.14000 -0.13000
v -1.26000 0.20500 -0.11258
v -1.26000 0.25258 -0.06500
v -0.80685 -0.62706 -0.37500
v -0.64133 -0.66582 -0.37500
v -0.49315 -0.03294 -0.37500
v -0.65867 0.00582 -0.37500
v -0.80685 -0.62706 -0.16500
v -0.64133 -0.66582 -0.16500
v -0.49315 -0.03294 -0.16500
v -0.65867 0.00582 -0.16500
v -0.79000 -0.70500 -0.55500
v -0.53000 -0.70500 -0.55500
v -0.53000 -0.59500 -0.55500
v -0.79000 -0.59500 -0.55500
v -0.79000 -0.70500 -0.16500
v -0.53000 -0.70500 -0.16500
v -0.53000 -0.59500 -0.16500
v -0.79000 -0.59500 -0.16500
v -0.41500 0.37500 -0.48000
v -0.32500 0.37500 -0.48000
v -0.32500 0.48500 -0.48000
v -0.41500 0.48500 -0.48000
v -0.41500 0.37500 -0.28000
v -0.32500 0.37500 -0.28000
v -0.32500 0.48500 -0.28000
v -0.41500 0.48500 -0.28000
v 0.54500 0.00000 -0.17000
v 0.97500 0.00000 -0.17000
v 0.97500 0.00000 0.17000
v 0.54500 0.00000 0.17000
v 0.50500 0.04000 -0.21000
v 1.01500 0.04000 -0.21000
v 1.01500 0.04000 0.21000
v 0.50500 0.04000 0.21000
v 0.50500 0.16000 -0.21000
v 1.01500 0.16000 -0.21000
v 1.01500 0.16000 0.21000
v 0.50500 0.16000 0.21000
v 0.54500 0.20000 -0.17000
v 0.97500 0.20000 -0.17000
v 0.97500 0.20000 0.17000
v 0.54500 0.20000 0.17000
v 1.18000 0.32000 0.00000
v 1.18000 0.29588 0.09000
v 1.18000 0.23000 0.15588
v 1.18000 0.14000 0.18000
v 1.18000 0.05000 0.15588
v 1.18000 -0.01588 0.09000
v 1.18000 -0.04000 0.00000
v 1.18000 -0.01588 -0.09000
v 1.18000 0.05000 -0.15588
v 1.18000 0.14000 -0.18000
v 1.18000 0.23000 -0.15588
v 1.18000 0.29588 -0.09000
v 0.78000 0.32000 0.00000
v 0.78000 0.29588 0.09000
v 0.78000 0.23000 0.15588
v 0.78000 0.14000 0.18000
v 0.78000 0.05000 0.15588
v 0.78000 -0.01588 0.09000
v 0.78000 -0.04000 0.00000
v 0.78000 -0.01588 -0.09000
v 0.78000 0.05000 -0.15588
v 0.78000 0.14000 -0.18000
v 0.78000 0.23000 -0.15588
v 0.78000 0.29588 -0.09000
v 1.26000 0.27000 0.00000
v 1.26000 0.25258 0.06500
v 1.26000 0.20500 0.11258
v 1.26000 0.14000 0.13000
v 1.26000 0.07500 0.11258
v 1.26000 0.02742 0.06500
v 1.26000 0.01000 0.00000
v 1.26000 0.02742 -0.06500
v 1.26000 0.07500 -0.11258
v 1.26000 0.14000 -0.13000
v 1.26000 0.20500 -0.11258
v 1.26000 0.25258 -0.06500
v 0.82000 0.27000 0.00000
v 0.82000 0.25258 0.06500
v 0.82000 0.20500 0.11258
v 0.82000 0.14000 0.13000
v 0.82000 0.07500 0.11258
v 0.82000 0.02742 0.06500
v 0.82000 0.01000 0.00000
v 0.82000 0.02742 -0.06500
v 0.82000 0.07500 -0.11258
v 0.82000 0.14000 -0.13000
v 0.82000 0.20500 -0.11258
v 0.82000 0.25258 -0.06500
v 0.64133 -0.66582 -0.37500
v 0.80685 -0.62706 -0.37500
v 0.65867 0.00582 -0.37500
v 0.49315 -0.03294 -0.37500
v 0.64133 -0.66582 -0.16500
v 0.80685 -0.62706 -0.16500
v 0.65867 0.00582 -0.16500
v 0.49315 -0.03294 -0.16500
v 0.53000 -0.70500 -0.55500
v 0.79000 -0.70500 -0.55500
v 0.79000 -0.59500 -0.55500
v 0.53000 -0.59500 -0.55500
v 0.53000 -0.70500 -0.16500
v 0.79000 -0.70500 -0.16500
v 0.79000 -0.59500 -0.16500
v 0.53000 -0.59500 -0.16500
v 0.32500 0.37500 -0.48000
v 0.41500 0.37500 -0.48000
v 0.41500 0.48500 -0.48000
v 0.32500 0.48500 -0.48000
v 0.32500 0.37500 -0.28000
v 0.41500 0.37500 -0.28000
v 0.41500 0.48500 -0.28000
v 0.32500 0.48500 -0.28000
v -0.34000 -0.02000 -0.66500
v -0.26000 -0.02000 -0.66500
v -0.26000 0.06000 -0.66500
v -0.34000 0.06000 -0.66500
v -0.34000 -0.02000 -0.63500
v -0.26000 -0.02000 -0.63500
v -0.26000 0.06000 -0.63500
v -0.34000 0.06000 -0.63500
v -0.04000 -0.02000 -0.66500
v 0.04000 -0.02000 -0.66500
v 0.04000 0.06000 -0.66500
v -0.04000 0.06000 -0.66500
v -0.04000 -0.02000 -0.63500
v 0.04000 -0.02000 -0.63500
v 0.04000 0.06000 -0.63500
v -0.04000 0.06000 -0.63500
v 0.26000 -0.02000 -0.66500
v 0.34000 -0.02000 -0.66500
v 0.34000 0.06000 -0.66500
v 0.26000 0.06000 -0.66500
v 0.26000 -0.02000 -0.63500
v 0.34000 -0.02000 -0.63500
v 0.34000 0.06000 -0.63500
v 0.26000 0.06000 -0.63500
usemtl steel
f 4 3 2 1
f 13 14 15 16
f 1 2 6 5
f 2 3 7 6
f 3 4 8 7
f 4 1 5 8
f 5 6 10 9
f 6 7 11 10
f 7 8 12 11
f 8 5 9 12
f 9 10 14 13
f 10 11 15 14
f 11 12 16 15
f 12 9 13 16
usemtl carbon
f 20 19 18 17
f 29 30 31 32
f 17 18 22 21
f 18 19 23 22
f 19 20 24 23
f 20 17 21 24
f 21 22 26 25
f 22 23 27 26
f 23 24 28 27
f 24 21 25 28
f 25 26 30 29
f 26 27 31 30
f 27 28 32 31
f 28 25 29 32
usemtl ember
f 36 35 34 33
f 45 46 47 48
f 33 34 38 37
f 34 35 39 38
f 35 36 40 39
f 36 33 37 40
f 37 38 42 41
f 38 39 43 42
f 39 40 44 43
f 40 37 41 44
f 41 42 46 45
f 42 43 47 46
f 43 44 48 47
f 44 41 45 48
usemtl slate
f 52 51 50 49
f 61 62 63 64
f 49 50 54 53
f 50 51 55 54
f 51 52 56 55
f 52 49 53 56
f 53 54 58 57
f 54 55 59 58
f 55 56 60 59
f 56 53 57 60
f 57 58 62 61
f 58 59 63 62
f 59 60 64 63
f 60 57 61 64
usemtl rust
f 68 67 66 65
f 69 70 71 72
f 65 66 70 69
f 67 68 72 71
f 66 67 71 70
f 68 65 69 72
usemtl copper
f 84 83 82 81 80 79 78 77 76 75 74 73
f 85 86 87 88 89 90 91 92 93 94 95 96
f 73 74 86 85
f 74 75 87 86
f 75 76 88 87
f 76 77 89 88
f 77 78 90 89
f 78 79 91 90
f 79 80 92 91
f 80 81 93 92
f 81 82 94 93
f 82 83 95 94
f 83 84 96 95
f 84 73 85 96
usemtl carbon
f 100 99 98 97
f 109 110 111 112
f 97 98 102 101
f 98 99 103 102
f 99 100 104 103
f 100 97 101 104
f 101 102 106 105
f 102 103 107 106
f 103 104 108 107
f 104 101 105 108
f 105 106 110 109
f 106 107 111 110
f 107 108 112 111
f 108 105 109 112
usemtl titanium
f 124 123 122 121 120 119 118 117 116 115 114 113
f 125 126 127 128 129 130 131 132 133 134 135 136
f 113 114 126 125
f 114 115 127 126
f 115 116 128 127
f 116 117 129 128
f 117 118 130 129
f 118 119 131 130
f 119 120 132 131
f 120 121 133 132
f 121 122 134 133
f 122 123 135 134
f 123 124 136 135
f 124 113 125 136
usemtl ember
f 148 147 146 145 144 143 142 141 140 139 138 137
f 149 150 151 152 153 154 155 156 157 158 159 160
f 137 138 150 149
f 138 139 151 150
f 139 140 152 151
f 140 141 153 152
f 141 142 154 153
f 142 143 155 154
f 143 144 156 155
f 144 145 157 156
f 145 146 158 157
f 146 147 159 158
f 147 148 160 159
f 148 137 149 160
usemtl steel
f 164 163 162 161
f 165 166 167 168
f 161 162 166 165
f 163 164 168 167
f 162 163 167 166
f 164 161 165 168
usemtl carbon
f 172 171 170 169
f 173 174 175 176
f 169 170 174 173
f 171 172 176 175
f 170 171 175 174
f 172 169 173 176
usemtl gold
f 180 179 178 177
f 181 182 183 184
f 177 178 182 181
f 179 180 184 183
f 178 179 183 182
f 180 177 181 184
usemtl carbon
f 188 187 186 185
f 197 198 199 200
f 185 186 190 189
f 186 187 191 190
f 187 188 192 191
f 188 185 189 192
f 189 190 194 193
f 190 191 195 194
f 191 192 196 195
f 192 189 193 196
f 193 194 198 197
f 194 195 199 198
f 195 196 200 199
f 196 193 197 200
usemtl titanium
f 212 211 210 209 208 207 206 205 204 203 202 201
f 213 214 215 216 217 218 219 220 221 222 223 224
f 201 202 214 213
f 202 203 215 214
f 203 204 216 215
f 204 205 217 216
f 205 206 218 217
f 206 207 219 218
f 207 208 220 219
f 208 209 221 220
f 209 210 222 221
f 210 211 223 222
f 211 212 224 223
f 212 201 213 224
usemtl ember
f 236 235 234 233 232 231 230 229 228 227 226 225
f 237 238 239 240 241 242 243 244 245 246 247 248
f 225 226 238 237
f 226 227 239 238
f 227 228 240 239
f 228 229 241 240
f 229 230 242 241
f 230 231 243 242
f 231 232 244 243
f 232 233 245 244
f 233 234 246 245
f 234 235 247 246
f 235 236 248 247
f 236 225 237 248
usemtl steel
f 252 251 250 249
f 253 254 255 256
f 249 250 254 253
f 251 252 256 255
f 250 251 255 254
f 252 249 253 256
usemtl carbon
f 260 259 258 257
f 261 262 263 264
f 257 258 262 261
f 259 260 264 263
f 258 259 263 262
f 260 257 261 264
usemtl gold
f 268 267 266 265
f 269 270 271 272
f 265 266 270 269
f 267 268 272 271
f 266 267 271 270
f 268 265 269 272
usemtl ember
f 276 275 274 273
f 277 278 279 280
f 273 274 278 277
f 275 276 280 279
f 274 275 279 278
f 276 273 277 280
f 284 283 282 281
f 285 286 287 288
f 281 282 286 285
f 283 284 288 287
f 282 283 287 286
f 284 281 285 288
f 292 291 290 289
f 293 294 295 296
f 289 290 294 293
f 291 292 296 295
f 290 291 295 294
f 292 289 293 296
