# FISURA original CC0-free studio geometry; authored for this game
mtllib fisura_materials.mtl
o fissure_sentinel_column
v -0.60000 0.00000 -0.60000
v 0.60000 0.00000 -0.60000
v 0.60000 0.00000 0.60000
v -0.60000 0.00000 0.60000
v -0.70000 0.10000 -0.70000
v 0.70000 0.10000 -0.70000
v 0.70000 0.10000 0.70000
v -0.70000 0.10000 0.70000
v -0.70000 0.34000 -0.70000
v 0.70000 0.34000 -0.70000
v 0.70000 0.34000 0.70000
v -0.70000 0.34000 0.70000
v -0.60000 0.44000 -0.60000
v 0.60000 0.44000 -0.60000
v 0.60000 0.44000 0.60000
v -0.60000 0.44000 0.60000
v -0.48000 0.36000 -0.48000
v 0.48000 0.36000 -0.48000
v 0.48000 0.36000 0.48000
v -0.48000 0.36000 0.48000
v -0.56000 0.44000 -0.56000
v 0.56000 0.44000 -0.56000
v 0.56000 0.44000 0.56000
v -0.56000 0.44000 0.56000
v -0.56000 0.56000 -0.56000
v 0.56000 0.56000 -0.56000
v 0.56000 0.56000 0.56000
v -0.56000 0.56000 0.56000
v -0.48000 0.64000 -0.48000
v 0.48000 0.64000 -0.48000
v 0.48000 0.64000 0.48000
v -0.48000 0.64000 0.48000
v -0.31000 0.60000 -0.31000
v 0.31000 0.60000 -0.31000
v 0.31000 0.60000 0.31000
v -0.31000 0.60000 0.31000
v -0.43000 0.72000 -0.43000
v 0.43000 0.72000 -0.43000
v 0.43000 0.72000 0.43000
v -0.43000 0.72000 0.43000
v -0.43000 3.48000 -0.43000
v 0.43000 3.48000 -0.43000
v 0.43000 3.48000 0.43000
v -0.43000 3.48000 0.43000
v -0.31000 3.60000 -0.31000
v 0.31000 3.60000 -0.31000
v 0.31000 3.60000 0.31000
v -0.31000 3.60000 0.31000
v -0.51000 3.45000 -0.51000
v 0.51000 3.45000 -0.51000
v 0.51000 3.45000 0.51000
v -0.51000 3.45000 0.51000
v -0.61000 3.55000 -0.61000
v 0.61000 3.55000 -0.61000
v 0.61000 3.55000 0.61000
v -0.61000 3.55000 0.61000
v -0.61000 3.85000 -0.61000
v 0.61000 3.85000 -0.61000
v 0.61000 3.85000 0.61000
v -0.61000 3.85000 0.61000
v -0.51000 3.95000 -0.51000
v 0.51000 3.95000 -0.51000
v 0.51000 3.95000 0.51000
v -0.51000 3.95000 0.51000
v -0.69500 3.91000 -0.69500
v 0.69500 3.91000 -0.69500
v 0.69500 3.91000 0.69500
v -0.69500 3.91000 0.69500
v -0.75000 3.96500 -0.75000
v 0.75000 3.96500 -0.75000
v 0.75000 3.96500 0.75000
v -0.75000 3.96500 0.75000
v -0.75000 4.13500 -0.75000
v 0.75000 4.13500 -0.75000
v 0.75000 4.13500 0.75000
v -0.75000 4.13500 0.75000
v -0.69500 4.19000 -0.69500
v 0.69500 4.19000 -0.69500
v 0.69500 4.19000 0.69500
v -0.69500 4.19000 0.69500
v -0.52000 0.57500 -0.52000
v -0.37000 0.57500 -0.52000
v -0.37000 3.52500 -0.52000
v -0.52000 3.52500 -0.52000
v -0.52000 0.57500 -0.37000
v -0.37000 0.57500 -0.37000
v -0.37000 3.52500 -0.37000
v -0.52000 3.52500 -0.37000
v -0.63000 3.36000 -0.63000
v -0.49000 3.36000 -0.63000
v -0.49000 3.36000 -0.49000
v -0.63000 3.36000 -0.49000
v -0.67000 3.40000 -0.67000
v -0.45000 3.40000 -0.67000
v -0.45000 3.40000 -0.45000
v -0.67000 3.40000 -0.45000
v -0.67000 3.64000 -0.67000
v -0.45000 3.64000 -0.67000
v -0.45000 3.64000 -0.45000
v -0.67000 3.64000 -0.45000
v -0.63000 3.68000 -0.63000
v -0.49000 3.68000 -0.63000
v -0.49000 3.68000 -0.49000
v -0.63000 3.68000 -0.49000
v -0.52000 0.57500 0.37000
v -0.37000 0.57500 0.37000
v -0.37000 3.52500 0.37000
v -0.52000 3.52500 0.37000
v -0.52000 0.57500 0.52000
v -0.37000 0.57500 0.52000
v -0.37000 3.52500 0.52000
v -0.52000 3.52500 0.52000
v -0.63000 3.36000 0.49000
v -0.49000 3.36000 0.49000
v -0.49000 3.36000 0.63000
v -0.63000 3.36000 0.63000
v -0.67000 3.40000 0.45000
v -0.45000 3.40000 0.45000
v -0.45000 3.40000 0.67000
v -0.67000 3.40000 0.67000
v -0.67000 3.64000 0.45000
v -0.45000 3.64000 0.45000
v -0.45000 3.64000 0.67000
v -0.67000 3.64000 0.67000
v -0.63000 3.68000 0.49000
v -0.49000 3.68000 0.49000
v -0.49000 3.68000 0.63000
v -0.63000 3.68000 0.63000
v 0.37000 0.57500 -0.52000
v 0.52000 0.57500 -0.52000
v 0.52000 3.52500 -0.52000
v 0.37000 3.52500 -0.52000
v 0.37000 0.57500 -0.37000
v 0.52000 0.57500 -0.37000
v 0.52000 3.52500 -0.37000
v 0.37000 3.52500 -0.37000
v 0.49000 3.36000 -0.63000
v 0.63000 3.36000 -0.63000
v 0.63000 3.36000 -0.49000
v 0.49000 3.36000 -0.49000
v 0.45000 3.40000 -0.67000
v 0.67000 3.40000 -0.67000
v 0.67000 3.40000 -0.45000
v 0.45000 3.40000 -0.45000
v 0.45000 3.64000 -0.67000
v 0.67000 3.64000 -0.67000
v 0.67000 3.64000 -0.45000
v 0.45000 3.64000 -0.45000
v 0.49000 3.68000 -0.63000
v 0.63000 3.68000 -0.63000
v 0.63000 3.68000 -0.49000
v 0.49000 3.68000 -0.49000
v 0.37000 0.57500 0.37000
v 0.52000 0.57500 0.37000
v 0.52000 3.52500 0.37000
v 0.37000 3.52500 0.37000
v 0.37000 0.57500 0.52000
v 0.52000 0.57500 0.52000
v 0.52000 3.52500 0.52000
v 0.37000 3.52500 0.52000
v 0.49000 3.36000 0.49000
v 0.63000 3.36000 0.49000
v 0.63000 3.36000 0.63000
v 0.49000 3.36000 0.63000
v 0.45000 3.40000 0.45000
v 0.67000 3.40000 0.45000
v 0.67000 3.40000 0.67000
v 0.45000 3.40000 0.67000
v 0.45000 3.64000 0.45000
v 0.67000 3.64000 0.45000
v 0.67000 3.64000 0.67000
v 0.45000 3.64000 0.67000
v 0.49000 3.68000 0.49000
v 0.63000 3.68000 0.49000
v 0.63000 3.68000 0.63000
v 0.49000 3.68000 0.63000
v 0.68000 0.93500 0.00000
v 0.58890 0.93500 0.34000
v 0.34000 0.93500 0.58890
v 0.00000 0.93500 0.68000
v -0.34000 0.93500 0.58890
v -0.58890 0.93500 0.34000
v -0.68000 0.93500 0.00000
v -0.58890 0.93500 -0.34000
v -0.34000 0.93500 -0.58890
v -0.00000 0.93500 -0.68000
v 0.34000 0.93500 -0.58890
v 0.58890 0.93500 -0.34000
v 0.57000 0.93500 0.00000
v 0.49363 0.93500 0.28500
v 0.28500 0.93500 0.49363
v 0.00000 0.93500 0.57000
v -0.28500 0.93500 0.49363
v -0.49363 0.93500 0.28500
v -0.57000 0.93500 0.00000
v -0.49363 0.93500 -0.28500
v -0.28500 0.93500 -0.49363
v -0.00000 0.93500 -0.57000
v 0.28500 0.93500 -0.49363
v 0.49363 0.93500 -0.28500
v 0.68000 1.06500 0.00000
v 0.58890 1.06500 0.34000
v 0.34000 1.06500 0.58890
v 0.00000 1.06500 0.68000
v -0.34000 1.06500 0.58890
v -0.58890 1.06500 0.34000
v -0.68000 1.06500 0.00000
v -0.58890 1.06500 -0.34000
v -0.34000 1.06500 -0.58890
v -0.00000 1.06500 -0.68000
v 0.34000 1.06500 -0.58890
v 0.58890 1.06500 -0.34000
v 0.57000 1.06500 0.00000
v 0.49363 1.06500 0.28500
v 0.28500 1.06500 0.49363
v 0.00000 1.06500 0.57000
v -0.28500 1.06500 0.49363
v -0.49363 1.06500 0.28500
v -0.57000 1.06500 0.00000
v -0.49363 1.06500 -0.28500
v -0.28500 1.06500 -0.49363
v -0.00000 1.06500 -0.57000
v 0.28500 1.06500 -0.49363
v 0.49363 1.06500 -0.28500
v 0.68000 2.68500 0.00000
v 0.58890 2.68500 0.34000
v 0.34000 2.68500 0.58890
v 0.00000 2.68500 0.68000
v -0.34000 2.68500 0.58890
v -0.58890 2.68500 0.34000
v -0.68000 2.68500 0.00000
v -0.58890 2.68500 -0.34000
v -0.34000 2.68500 -0.58890
v -0.00000 2.68500 -0.68000
v 0.34000 2.68500 -0.58890
v 0.58890 2.68500 -0.34000
v 0.57000 2.68500 0.00000
v 0.49363 2.68500 0.28500
v 0.28500 2.68500 0.49363
v 0.00000 2.68500 0.57000
v -0.28500 2.68500 0.49363
v -0.49363 2.68500 0.28500
v -0.57000 2.68500 0.00000
v -0.49363 2.68500 -0.28500
v -0.28500 2.68500 -0.49363
v -0.00000 2.68500 -0.57000
v 0.28500 2.68500 -0.49363
v 0.49363 2.68500 -0.28500
v 0.68000 2.81500 0.00000
v 0.58890 2.81500 0.34000
v 0.34000 2.81500 0.58890
v 0.00000 2.81500 0.68000
v -0.34000 2.81500 0.58890
v -0.58890 2.81500 0.34000
v -0.68000 2.81500 0.00000
v -0.58890 2.81500 -0.34000
v -0.34000 2.81500 -0.58890
v -0.00000 2.81500 -0.68000
v 0.34000 2.81500 -0.58890
v 0.58890 2.81500 -0.34000
v 0.57000 2.81500 0.00000
v 0.49363 2.81500 0.28500
v 0.28500 2.81500 0.49363
v 0.00000 2.81500 0.57000
v -0.28500 2.81500 0.49363
v -0.49363 2.81500 0.28500
v -0.57000 2.81500 0.00000
v -0.49363 2.81500 -0.28500
v -0.28500 2.81500 -0.49363
v -0.00000 2.81500 -0.57000
v 0.28500 2.81500 -0.49363
v 0.49363 2.81500 -0.28500
v -0.08000 1.24000 -0.50500
v 0.08000 1.24000 -0.50500
v 0.08000 2.96000 -0.50500
v -0.08000 2.96000 -0.50500
v -0.08000 1.24000 -0.45500
v 0.08000 1.24000 -0.45500
v 0.08000 2.96000 -0.45500
v -0.08000 2.96000 -0.45500
v -0.08000 1.24000 0.45500
v 0.08000 1.24000 0.45500
v 0.08000 2.96000 0.45500
v -0.08000 2.96000 0.45500
v -0.08000 1.24000 0.50500
v 0.08000 1.24000 0.50500
v 0.08000 2.96000 0.50500
v -0.08000 2.96000 0.50500
usemtl carbon
f 4 3 2 1
f 13 14 15 16
f 1 2 6 5
f 2 3 7 6
f 3 4 8 7
f 4 1 5 8
f 5 6 10 9
f 6 7 11 10
f 7 8 12 11
f 8 5 9 12
f 9 10 14 13
f 10 11 15 14
f 11 12 16 15
f 12 9 13 16
usemtl stone
f 20 19 18 17
f 29 30 31 32
f 17 18 22 21
f 18 19 23 22
f 19 20 24 23
f 20 17 21 24
f 21 22 26 25
f 22 23 27 26
f 23 24 28 27
f 24 21 25 28
f 25 26 30 29
f 26 27 31 30
f 27 28 32 31
f 28 25 29 32
usemtl steel
f 36 35 34 33
f 45 46 47 48
f 33 34 38 37
f 34 35 39 38
f 35 36 40 39
f 36 33 37 40
f 37 38 42 41
f 38 39 43 42
f 39 40 44 43
f 40 37 41 44
f 41 42 46 45
f 42 43 47 46
f 43 44 48 47
f 44 41 45 48
usemtl slate
f 52 51 50 49
f 61 62 63 64
f 49 50 54 53
f 50 51 55 54
f 51 52 56 55
f 52 49 53 56
f 53 54 58 57
f 54 55 59 58
f 55 56 60 59
f 56 53 57 60
f 57 58 62 61
f 58 59 63 62
f 59 60 64 63
f 60 57 61 64
usemtl carbon
f 68 67 66 65
f 77 78 79 80
f 65 66 70 69
f 66 67 71 70
f 67 68 72 71
f 68 65 69 72
f 69 70 74 73
f 70 71 75 74
f 71 72 76 75
f 72 69 73 76
f 73 74 78 77
f 74 75 79 78
f 75 76 80 79
f 76 73 77 80
usemtl gold
f 84 83 82 81
f 85 86 87 88
f 81 82 86 85
f 83 84 88 87
f 82 83 87 86
f 84 81 85 88
usemtl titanium
f 92 91 90 89
f 101 102 103 104
f 89 90 94 93
f 90 91 95 94
f 91 92 96 95
f 92 89 93 96
f 93 94 98 97
f 94 95 99 98
f 95 96 100 99
f 96 93 97 100
f 97 98 102 101
f 98 99 103 102
f 99 100 104 103
f 100 97 101 104
usemtl gold
f 108 107 106 105
f 109 110 111 112
f 105 106 110 109
f 107 108 112 111
f 106 107 111 110
f 108 105 109 112
usemtl titanium
f 116 115 114 113
f 125 126 127 128
f 113 114 118 117
f 114 115 119 118
f 115 116 120 119
f 116 113 117 120
f 117 118 122 121
f 118 119 123 122
f 119 120 124 123
f 120 117 121 124
f 121 122 126 125
f 122 123 127 126
f 123 124 128 127
f 124 121 125 128
usemtl gold
f 132 131 130 129
f 133 134 135 136
f 129 130 134 133
f 131 132 136 135
f 130 131 135 134
f 132 129 133 136
usemtl titanium
f 140 139 138 137
f 149 150 151 152
f 137 138 142 141
f 138 139 143 142
f 139 140 144 143
f 140 137 141 144
f 141 142 146 145
f 142 143 147 146
f 143 144 148 147
f 144 141 145 148
f 145 146 150 149
f 146 147 151 150
f 147 148 152 151
f 148 145 149 152
usemtl gold
f 156 155 154 153
f 157 158 159 160
f 153 154 158 157
f 155 156 160 159
f 154 155 159 158
f 156 153 157 160
usemtl titanium
f 164 163 162 161
f 173 174 175 176
f 161 162 166 165
f 162 163 167 166
f 163 164 168 167
f 164 161 165 168
f 165 166 170 169
f 166 167 171 170
f 167 168 172 171
f 168 165 169 172
f 169 170 174 173
f 170 171 175 174
f 171 172 176 175
f 172 169 173 176
usemtl carbon
f 177 178 202 201
f 190 189 213 214
f 178 190 214 202
f 189 177 201 213
f 178 179 203 202
f 191 190 214 215
f 179 191 215 203
f 190 178 202 214
f 179 180 204 203
f 192 191 215 216
f 180 192 216 204
f 191 179 203 215
f 180 181 205 204
f 193 192 216 217
f 181 193 217 205
f 192 180 204 216
f 181 182 206 205
f 194 193 217 218
f 182 194 218 206
f 193 181 205 217
f 182 183 207 206
f 195 194 218 219
f 183 195 219 207
f 194 182 206 218
f 183 184 208 207
f 196 195 219 220
f 184 196 220 208
f 195 183 207 219
f 184 185 209 208
f 197 196 220 221
f 185 197 221 209
f 196 184 208 220
f 185 186 210 209
f 198 197 221 222
f 186 198 222 210
f 197 185 209 221
f 186 187 211 210
f 199 198 222 223
f 187 199 223 211
f 198 186 210 222
f 187 188 212 211
f 200 199 223 224
f 188 200 224 212
f 199 187 211 223
f 188 177 201 212
f 189 200 224 213
f 177 189 213 201
f 200 188 212 224
f 225 226 250 249
f 238 237 261 262
f 226 238 262 250
f 237 225 249 261
f 226 227 251 250
f 239 238 262 263
f 227 239 263 251
f 238 226 250 262
f 227 228 252 251
f 240 239 263 264
f 228 240 264 252
f 239 227 251 263
f 228 229 253 252
f 241 240 264 265
f 229 241 265 253
f 240 228 252 264
f 229 230 254 253
f 242 241 265 266
f 230 242 266 254
f 241 229 253 265
f 230 231 255 254
f 243 242 266 267
f 231 243 267 255
f 242 230 254 266
f 231 232 256 255
f 244 243 267 268
f 232 244 268 256
f 243 231 255 267
f 232 233 257 256
f 245 244 268 269
f 233 245 269 257
f 244 232 256 268
f 233 234 258 257
f 246 245 269 270
f 234 246 270 258
f 245 233 257 269
f 234 235 259 258
f 247 246 270 271
f 235 247 271 259
f 246 234 258 270
f 235 236 260 259
f 248 247 271 272
f 236 248 272 260
f 247 235 259 271
f 236 225 249 260
f 237 248 272 261
f 225 237 261 249
f 248 236 260 272
usemtl glow
f 276 275 274 273
f 277 278 279 280
f 273 274 278 277
f 275 276 280 279
f 274 275 279 278
f 276 273 277 280
f 284 283 282 281
f 285 286 287 288
f 281 282 286 285
f 283 284 288 287
f 282 283 287 286
f 284 281 285 288
