# FISURA original CC0-free studio geometry; authored for this game
mtllib fisura_materials.mtl
o vanguard_rifle
v -0.05000 -0.12500 -0.91500
v 0.05000 -0.12500 -0.91500
v 0.05000 -0.12500 0.11500
v -0.05000 -0.12500 0.11500
v -0.07500 -0.10000 -0.94000
v 0.07500 -0.10000 -0.94000
v 0.07500 -0.10000 0.14000
v -0.07500 -0.10000 0.14000
v -0.07500 0.10000 -0.94000
v 0.07500 0.10000 -0.94000
v 0.07500 0.10000 0.14000
v -0.07500 0.10000 0.14000
v -0.05000 0.12500 -0.91500
v 0.05000 0.12500 -0.91500
v 0.05000 0.12500 0.11500
v -0.05000 0.12500 0.11500
v -0.06500 0.12500 -0.77000
v 0.06500 0.12500 -0.77000
v 0.06500 0.19500 -0.77000
v -0.06500 0.19500 -0.77000
v -0.06500 0.12500 -0.37000
v 0.06500 0.12500 -0.37000
v 0.06500 0.19500 -0.37000
v -0.06500 0.19500 -0.37000
v 0.06500 0.04000 -1.41000
v 0.05629 0.00750 -1.41000
v 0.03250 -0.01629 -1.41000
v 0.00000 -0.02500 -1.41000
v -0.03250 -0.01629 -1.41000
v -0.05629 0.00750 -1.41000
v -0.06500 0.04000 -1.41000
v -0.05629 0.07250 -1.41000
v -0.03250 0.09629 -1.41000
v -0.00000 0.10500 -1.41000
v 0.03250 0.09629 -1.41000
v 0.05629 0.07250 -1.41000
v 0.06500 0.04000 -0.75000
v 0.05629 0.00750 -0.75000
v 0.03250 -0.01629 -0.75000
v 0.00000 -0.02500 -0.75000
v -0.03250 -0.01629 -0.75000
v -0.05629 0.00750 -0.75000
v -0.06500 0.04000 -0.75000
v -0.05629 0.07250 -0.75000
v -0.03250 0.09629 -0.75000
v -0.00000 0.10500 -0.75000
v 0.03250 0.09629 -0.75000
v 0.05629 0.07250 -0.75000
v -0.06000 -0.26351 -0.39952
v 0.06000 -0.26351 -0.39952
v 0.06000 -0.00048 -0.30351
v -0.06000 -0.00048 -0.30351
v -0.06000 -0.35952 -0.13649
v 0.06000 -0.35952 -0.13649
v 0.06000 -0.09649 -0.04048
v -0.06000 -0.09649 -0.04048
v -0.05000 0.10500 -0.20000
v 0.05000 0.10500 -0.20000
v 0.05000 0.25500 -0.20000
v -0.05000 0.25500 -0.20000
v -0.05000 0.10500 0.00000
v 0.05000 0.10500 0.00000
v 0.05000 0.25500 0.00000
v -0.05000 0.25500 0.00000
v -0.02000 0.23500 -0.12500
v 0.02000 0.23500 -0.12500
v 0.02000 0.26500 -0.12500
v -0.02000 0.26500 -0.12500
v -0.02000 0.23500 -0.07500
v 0.02000 0.23500 -0.07500
v 0.02000 0.26500 -0.07500
v -0.02000 0.26500 -0.07500
usemtl carbon
f 4 3 2 1
f 13 14 15 16
f 1 2 6 5
f 2 3 7 6
f 3 4 8 7
f 4 1 5 8
f 5 6 10 9
f 6 7 11 10
f 7 8 12 11
f 8 5 9 12
f 9 10 14 13
f 10 11 15 14
f 11 12 16 15
f 12 9 13 16
usemtl gold
f 20 19 18 17
f 21 22 23 24
f 17 18 22 21
f 19 20 24 23
f 18 19 23 22
f 20 17 21 24
usemtl steel
f 36 35 34 33 32 31 30 29 28 27 26 25
f 37 38 39 40 41 42 43 44 45 46 47 48
f 25 26 38 37
f 26 27 39 38
f 27 28 40 39
f 28 29 41 40
f 29 30 42 41
f 30 31 43 42
f 31 32 44 43
f 32 33 45 44
f 33 34 46 45
f 34 35 47 46
f 35 36 48 47
f 36 25 37 48
f 52 51 50 49
f 53 54 55 56
f 49 50 54 53
f 51 52 56 55
f 50 51 55 54
f 52 49 53 56
usemtl slate
f 60 59 58 57
f 61 62 63 64
f 57 58 62 61
f 59 60 64 63
f 58 59 63 62
f 60 57 61 64
usemtl glow
f 68 67 66 65
f 69 70 71 72
f 65 66 70 69
f 67 68 72 71
f 66 67 71 70
f 68 65 69 72
