# FISURA original CC0-free studio geometry; authored for this game
mtllib fisura_materials.mtl
o vanguard_armored_chassis
v -0.32500 -0.30000 -0.14000
v 0.32500 -0.30000 -0.14000
v 0.32500 -0.30000 0.14000
v -0.32500 -0.30000 0.14000
v -0.42500 -0.20000 -0.24000
v 0.42500 -0.20000 -0.24000
v 0.42500 -0.20000 0.24000
v -0.42500 -0.20000 0.24000
v -0.42500 0.60000 -0.24000
v 0.42500 0.60000 -0.24000
v 0.42500 0.60000 0.24000
v -0.42500 0.60000 0.24000
v -0.32500 0.70000 -0.14000
v 0.32500 0.70000 -0.14000
v 0.32500 0.70000 0.14000
v -0.32500 0.70000 0.14000
v -0.32000 -0.11000 -0.31500
v 0.32000 -0.11000 -0.31500
v 0.32000 -0.11000 -0.26500
v -0.32000 -0.11000 -0.26500
v -0.34500 -0.08500 -0.34000
v 0.34500 -0.08500 -0.34000
v 0.34500 -0.08500 -0.24000
v -0.34500 -0.08500 -0.24000
v -0.34500 0.58500 -0.34000
v 0.34500 0.58500 -0.34000
v 0.34500 0.58500 -0.24000
v -0.34500 0.58500 -0.24000
v -0.32000 0.61000 -0.31500
v 0.32000 0.61000 -0.31500
v 0.32000 0.61000 -0.26500
v -0.32000 0.61000 -0.26500
v -0.29000 -0.44000 -0.18000
v 0.29000 -0.44000 -0.18000
v 0.29000 -0.44000 0.18000
v -0.29000 -0.44000 0.18000
v -0.34500 -0.38500 -0.23500
v 0.34500 -0.38500 -0.23500
v 0.34500 -0.38500 0.23500
v -0.34500 -0.38500 0.23500
v -0.34500 -0.23500 -0.23500
v 0.34500 -0.23500 -0.23500
v 0.34500 -0.23500 0.23500
v -0.34500 -0.23500 0.23500
v -0.29000 -0.18000 -0.18000
v 0.29000 -0.18000 -0.18000
v 0.29000 -0.18000 0.18000
v -0.29000 -0.18000 0.18000
v -0.17500 0.51000 -0.17000
v 0.17500 0.51000 -0.17000
v 0.17500 0.51000 0.17000
v -0.17500 0.51000 0.17000
v -0.26500 0.60000 -0.26000
v 0.26500 0.60000 -0.26000
v 0.26500 0.60000 0.26000
v -0.26500 0.60000 0.26000
v -0.26500 0.92000 -0.26000
v 0.26500 0.92000 -0.26000
v 0.26500 0.92000 0.26000
v -0.26500 0.92000 0.26000
v -0.17500 1.01000 -0.17000
v 0.17500 1.01000 -0.17000
v 0.17500 1.01000 0.17000
v -0.17500 1.01000 0.17000
v -0.19900 0.68500 -0.31400
v 0.19900 0.68500 -0.31400
v 0.19900 0.68500 -0.26600
v -0.19900 0.68500 -0.26600
v -0.21500 0.70100 -0.33000
v 0.21500 0.70100 -0.33000
v 0.21500 0.70100 -0.25000
v -0.21500 0.70100 -0.25000
v -0.21500 0.83900 -0.33000
v 0.21500 0.83900 -0.33000
v 0.21500 0.83900 -0.25000
v -0.21500 0.83900 -0.25000
v -0.19900 0.85500 -0.31400
v 0.19900 0.85500 -0.31400
v 0.19900 0.85500 -0.26600
v -0.19900 0.85500 -0.26600
v -0.16300 0.46000 -0.30300
v 0.16300 0.46000 -0.30300
v 0.16300 0.46000 -0.23700
v -0.16300 0.46000 -0.23700
v -0.17500 0.47200 -0.31500
v 0.17500 0.47200 -0.31500
v 0.17500 0.47200 -0.22500
v -0.17500 0.47200 -0.22500
v -0.17500 0.54800 -0.31500
v 0.17500 0.54800 -0.31500
v 0.17500 0.54800 -0.22500
v -0.17500 0.54800 -0.22500
v -0.16300 0.56000 -0.30300
v 0.16300 0.56000 -0.30300
v 0.16300 0.56000 -0.23700
v -0.16300 0.56000 -0.23700
v -0.59000 0.36000 -0.22500
v -0.31000 0.36000 -0.22500
v -0.31000 0.36000 0.22500
v -0.59000 0.36000 0.22500
v -0.67000 0.44000 -0.30500
v -0.23000 0.44000 -0.30500
v -0.23000 0.44000 0.30500
v -0.67000 0.44000 0.30500
v -0.67000 0.54000 -0.30500
v -0.23000 0.54000 -0.30500
v -0.23000 0.54000 0.30500
v -0.67000 0.54000 0.30500
v -0.59000 0.62000 -0.22500
v -0.31000 0.62000 -0.22500
v -0.31000 0.62000 0.22500
v -0.59000 0.62000 0.22500
v -0.30967 -0.13301 -0.40000
v -0.19027 -0.14499 -0.40000
v -0.15033 0.25301 -0.40000
v -0.26973 0.26499 -0.40000
v -0.30967 -0.13301 -0.34000
v -0.19027 -0.14499 -0.34000
v -0.15033 0.25301 -0.34000
v -0.26973 0.26499 -0.34000
v -0.23500 -0.35000 -0.30000
v -0.14500 -0.35000 -0.30000
v -0.14500 -0.17000 -0.30000
v -0.23500 -0.17000 -0.30000
v -0.23500 -0.35000 -0.22000
v -0.14500 -0.35000 -0.22000
v -0.14500 -0.17000 -0.22000
v -0.23500 -0.17000 -0.22000
v -0.33500 -0.48000 -0.11000
v -0.14500 -0.48000 -0.11000
v -0.14500 -0.48000 0.11000
v -0.33500 -0.48000 0.11000
v -0.36500 -0.45000 -0.14000
v -0.11500 -0.45000 -0.14000
v -0.11500 -0.45000 0.14000
v -0.36500 -0.45000 0.14000
v -0.36500 -0.29000 -0.14000
v -0.11500 -0.29000 -0.14000
v -0.11500 -0.29000 0.14000
v -0.36500 -0.29000 0.14000
v -0.33500 -0.26000 -0.11000
v -0.14500 -0.26000 -0.11000
v -0.14500 -0.26000 0.11000
v -0.33500 -0.26000 0.11000
v -0.27000 0.26000 -0.36250
v -0.17000 0.26000 -0.36250
v -0.17000 0.48000 -0.36250
v -0.27000 0.48000 -0.36250
v -0.27000 0.26000 -0.33750
v -0.17000 0.26000 -0.33750
v -0.17000 0.48000 -0.33750
v -0.27000 0.48000 -0.33750
v 0.31000 0.36000 -0.22500
v 0.59000 0.36000 -0.22500
v 0.59000 0.36000 0.22500
v 0.31000 0.36000 0.22500
v 0.23000 0.44000 -0.30500
v 0.67000 0.44000 -0.30500
v 0.67000 0.44000 0.30500
v 0.23000 0.44000 0.30500
v 0.23000 0.54000 -0.30500
v 0.67000 0.54000 -0.30500
v 0.67000 0.54000 0.30500
v 0.23000 0.54000 0.30500
v 0.31000 0.62000 -0.22500
v 0.59000 0.62000 -0.22500
v 0.59000 0.62000 0.22500
v 0.31000 0.62000 0.22500
v 0.19027 -0.14499 -0.40000
v 0.30967 -0.13301 -0.40000
v 0.26973 0.26499 -0.40000
v 0.15033 0.25301 -0.40000
v 0.19027 -0.14499 -0.34000
v 0.30967 -0.13301 -0.34000
v 0.26973 0.26499 -0.34000
v 0.15033 0.25301 -0.34000
v 0.14500 -0.35000 -0.30000
v 0.23500 -0.35000 -0.30000
v 0.23500 -0.17000 -0.30000
v 0.14500 -0.17000 -0.30000
v 0.14500 -0.35000 -0.22000
v 0.23500 -0.35000 -0.22000
v 0.23500 -0.17000 -0.22000
v 0.14500 -0.17000 -0.22000
v 0.14500 -0.48000 -0.11000
v 0.33500 -0.48000 -0.11000
v 0.33500 -0.48000 0.11000
v 0.14500 -0.48000 0.11000
v 0.11500 -0.45000 -0.14000
v 0.36500 -0.45000 -0.14000
v 0.36500 -0.45000 0.14000
v 0.11500 -0.45000 0.14000
v 0.11500 -0.29000 -0.14000
v 0.36500 -0.29000 -0.14000
v 0.36500 -0.29000 0.14000
v 0.11500 -0.29000 0.14000
v 0.14500 -0.26000 -0.11000
v 0.33500 -0.26000 -0.11000
v 0.33500 -0.26000 0.11000
v 0.14500 -0.26000 0.11000
v 0.17000 0.26000 -0.36250
v 0.27000 0.26000 -0.36250
v 0.27000 0.48000 -0.36250
v 0.17000 0.48000 -0.36250
v 0.17000 0.26000 -0.33750
v 0.27000 0.26000 -0.33750
v 0.27000 0.48000 -0.33750
v 0.17000 0.48000 -0.33750
v -0.16500 0.10000 -0.41000
v 0.16500 0.10000 -0.41000
v 0.16500 0.22000 -0.41000
v -0.16500 0.22000 -0.41000
v -0.16500 0.10000 -0.37000
v 0.16500 0.10000 -0.37000
v 0.16500 0.22000 -0.37000
v -0.16500 0.22000 -0.37000
v -0.25000 -0.06500 0.22500
v 0.25000 -0.06500 0.22500
v 0.25000 0.38500 0.22500
v -0.25000 0.38500 0.22500
v -0.25000 -0.06500 0.31500
v 0.25000 -0.06500 0.31500
v 0.25000 0.38500 0.31500
v -0.25000 0.38500 0.31500
usemtl steel
f 4 3 2 1
f 13 14 15 16
f 1 2 6 5
f 2 3 7 6
f 3 4 8 7
f 4 1 5 8
f 5 6 10 9
f 6 7 11 10
f 7 8 12 11
f 8 5 9 12
f 9 10 14 13
f 10 11 15 14
f 11 12 16 15
f 12 9 13 16
usemtl titanium
f 20 19 18 17
f 29 30 31 32
f 17 18 22 21
f 18 19 23 22
f 19 20 24 23
f 20 17 21 24
f 21 22 26 25
f 22 23 27 26
f 23 24 28 27
f 24 21 25 28
f 25 26 30 29
f 26 27 31 30
f 27 28 32 31
f 28 25 29 32
usemtl carbon
f 36 35 34 33
f 45 46 47 48
f 33 34 38 37
f 34 35 39 38
f 35 36 40 39
f 36 33 37 40
f 37 38 42 41
f 38 39 43 42
f 39 40 44 43
f 40 37 41 44
f 41 42 46 45
f 42 43 47 46
f 43 44 48 47
f 44 41 45 48
f 52 51 50 49
f 61 62 63 64
f 49 50 54 53
f 50 51 55 54
f 51 52 56 55
f 52 49 53 56
f 53 54 58 57
f 54 55 59 58
f 55 56 60 59
f 56 53 57 60
f 57 58 62 61
f 58 59 63 62
f 59 60 64 63
f 60 57 61 64
usemtl glow
f 68 67 66 65
f 77 78 79 80
f 65 66 70 69
f 66 67 71 70
f 67 68 72 71
f 68 65 69 72
f 69 70 74 73
f 70 71 75 74
f 71 72 76 75
f 72 69 73 76
f 73 74 78 77
f 74 75 79 78
f 75 76 80 79
f 76 73 77 80
usemtl gold
f 84 83 82 81
f 93 94 95 96
f 81 82 86 85
f 82 83 87 86
f 83 84 88 87
f 84 81 85 88
f 85 86 90 89
f 86 87 91 90
f 87 88 92 91
f 88 85 89 92
f 89 90 94 93
f 90 91 95 94
f 91 92 96 95
f 92 89 93 96
usemtl slate
f 100 99 98 97
f 109 110 111 112
f 97 98 102 101
f 98 99 103 102
f 99 100 104 103
f 100 97 101 104
f 101 102 106 105
f 102 103 107 106
f 103 104 108 107
f 104 101 105 108
f 105 106 110 109
f 106 107 111 110
f 107 108 112 111
f 108 105 109 112
usemtl gold
f 116 115 114 113
f 117 118 119 120
f 113 114 118 117
f 115 116 120 119
f 114 115 119 118
f 116 113 117 120
usemtl glow
f 124 123 122 121
f 125 126 127 128
f 121 122 126 125
f 123 124 128 127
f 122 123 127 126
f 124 121 125 128
usemtl titanium
f 132 131 130 129
f 141 142 143 144
f 129 130 134 133
f 130 131 135 134
f 131 132 136 135
f 132 129 133 136
f 133 134 138 137
f 134 135 139 138
f 135 136 140 139
f 136 133 137 140
f 137 138 142 141
f 138 139 143 142
f 139 140 144 143
f 140 137 141 144
usemtl carbon
f 148 147 146 145
f 149 150 151 152
f 145 146 150 149
f 147 148 152 151
f 146 147 151 150
f 148 145 149 152
usemtl slate
f 156 155 154 153
f 165 166 167 168
f 153 154 158 157
f 154 155 159 158
f 155 156 160 159
f 156 153 157 160
f 157 158 162 161
f 158 159 163 162
f 159 160 164 163
f 160 157 161 164
f 161 162 166 165
f 162 163 167 166
f 163 164 168 167
f 164 161 165 168
usemtl gold
f 172 171 170 169
f 173 174 175 176
f 169 170 174 173
f 171 172 176 175
f 170 171 175 174
f 172 169 173 176
usemtl glow
f 180 179 178 177
f 181 182 183 184
f 177 178 182 181
f 179 180 184 183
f 178 179 183 182
f 180 177 181 184
usemtl titanium
f 188 187 186 185
f 197 198 199 200
f 185 186 190 189
f 186 187 191 190
f 187 188 192 191
f 188 185 189 192
f 189 190 194 193
f 190 191 195 194
f 191 192 196 195
f 192 189 193 196
f 193 194 198 197
f 194 195 199 198
f 195 196 200 199
f 196 193 197 200
usemtl carbon
f 204 203 202 201
f 205 206 207 208
f 201 202 206 205
f 203 204 208 207
f 202 203 207 206
f 204 201 205 208
usemtl glow
f 212 211 210 209
f 213 214 215 216
f 209 210 214 213
f 211 212 216 215
f 210 211 215 214
f 212 209 213 216
usemtl carbon
f 220 219 218 217
f 221 222 223 224
f 217 218 222 221
f 219 220 224 223
f 218 219 223 222
f 220 217 221 224
