# FISURA original CC0-free studio geometry; authored for this game
mtllib fisura_materials.mtl
o vanguard_armoured_leg
v -0.10500 -0.39000 -0.11000
v 0.10500 -0.39000 -0.11000
v 0.10500 -0.39000 0.11000
v -0.10500 -0.39000 0.11000
v -0.15500 -0.34000 -0.16000
v 0.15500 -0.34000 -0.16000
v 0.15500 -0.34000 0.16000
v -0.15500 -0.34000 0.16000
v -0.15500 -0.02000 -0.16000
v 0.15500 -0.02000 -0.16000
v 0.15500 -0.02000 0.16000
v -0.15500 -0.02000 0.16000
v -0.10500 0.03000 -0.11000
v 0.10500 0.03000 -0.11000
v 0.10500 0.03000 0.11000
v -0.10500 0.03000 0.11000
v -0.09500 -0.66500 -0.10500
v 0.09500 -0.66500 -0.10500
v 0.09500 -0.66500 0.07500
v -0.09500 -0.66500 0.07500
v -0.14000 -0.62000 -0.15000
v 0.14000 -0.62000 -0.15000
v 0.14000 -0.62000 0.12000
v -0.14000 -0.62000 0.12000
v -0.14000 -0.34000 -0.15000
v 0.14000 -0.34000 -0.15000
v 0.14000 -0.34000 0.12000
v -0.14000 -0.34000 0.12000
v -0.09500 -0.29500 -0.10500
v 0.09500 -0.29500 -0.10500
v 0.09500 -0.29500 0.07500
v -0.09500 -0.29500 0.07500
v -0.11500 -0.80500 -0.31000
v 0.11500 -0.80500 -0.31000
v 0.11500 -0.80500 0.10000
v -0.11500 -0.80500 0.10000
v -0.16000 -0.76000 -0.35500
v 0.16000 -0.76000 -0.35500
v 0.16000 -0.76000 0.14500
v -0.16000 -0.76000 0.14500
v -0.16000 -0.64000 -0.35500
v 0.16000 -0.64000 -0.35500
v 0.16000 -0.64000 0.14500
v -0.16000 -0.64000 0.14500
v -0.11500 -0.59500 -0.31000
v 0.11500 -0.59500 -0.31000
v 0.11500 -0.59500 0.10000
v -0.11500 -0.59500 0.10000
v -0.09500 -0.51500 -0.19500
v 0.09500 -0.51500 -0.19500
v 0.09500 -0.51500 -0.16500
v -0.09500 -0.51500 -0.16500
v -0.10500 -0.50500 -0.20500
v 0.10500 -0.50500 -0.20500
v 0.10500 -0.50500 -0.15500
v -0.10500 -0.50500 -0.15500
v -0.10500 -0.37500 -0.20500
v 0.10500 -0.37500 -0.20500
v 0.10500 -0.37500 -0.15500
v -0.10500 -0.37500 -0.15500
v -0.09500 -0.36500 -0.19500
v 0.09500 -0.36500 -0.19500
v 0.09500 -0.36500 -0.16500
v -0.09500 -0.36500 -0.16500
v -0.06000 -0.34500 -0.18800
v 0.06000 -0.34500 -0.18800
v 0.06000 -0.15500 -0.18800
v -0.06000 -0.15500 -0.18800
v -0.06000 -0.34500 -0.15800
v 0.06000 -0.34500 -0.15800
v 0.06000 -0.15500 -0.15800
v -0.06000 -0.15500 -0.15800
v -0.04500 -0.58000 -0.18600
v 0.04500 -0.58000 -0.18600
v 0.04500 -0.48000 -0.18600
v -0.04500 -0.48000 -0.18600
v -0.04500 -0.58000 -0.14600
v 0.04500 -0.58000 -0.14600
v 0.04500 -0.48000 -0.14600
v -0.04500 -0.48000 -0.14600
usemtl slate
f 4 3 2 1
f 13 14 15 16
f 1 2 6 5
f 2 3 7 6
f 3 4 8 7
f 4 1 5 8
f 5 6 10 9
f 6 7 11 10
f 7 8 12 11
f 8 5 9 12
f 9 10 14 13
f 10 11 15 14
f 11 12 16 15
f 12 9 13 16
usemtl steel
f 20 19 18 17
f 29 30 31 32
f 17 18 22 21
f 18 19 23 22
f 19 20 24 23
f 20 17 21 24
f 21 22 26 25
f 22 23 27 26
f 23 24 28 27
f 24 21 25 28
f 25 26 30 29
f 26 27 31 30
f 27 28 32 31
f 28 25 29 32
usemtl carbon
f 36 35 34 33
f 45 46 47 48
f 33 34 38 37
f 34 35 39 38
f 35 36 40 39
f 36 33 37 40
f 37 38 42 41
f 38 39 43 42
f 39 40 44 43
f 40 37 41 44
f 41 42 46 45
f 42 43 47 46
f 43 44 48 47
f 44 41 45 48
usemtl titanium
f 52 51 50 49
f 61 62 63 64
f 49 50 54 53
f 50 51 55 54
f 51 52 56 55
f 52 49 53 56
f 53 54 58 57
f 54 55 59 58
f 55 56 60 59
f 56 53 57 60
f 57 58 62 61
f 58 59 63 62
f 59 60 64 63
f 60 57 61 64
usemtl gold
f 68 67 66 65
f 69 70 71 72
f 65 66 70 69
f 67 68 72 71
f 66 67 71 70
f 68 65 69 72
usemtl glow
f 76 75 74 73
f 77 78 79 80
f 73 74 78 77
f 75 76 80 79
f 74 75 79 78
f 76 73 77 80
